<mxfile host="app.diagrams.net" agent="Mozilla/5.0 (Windows NT 10.0; Win64; x64) AppleWebKit/537.36 (KHTML, like Gecko) Chrome/128.0.0.0 Safari/537.36" version="24.7.16">
  <diagram name="第 1 页" id="nx4WXv-IdOPCkZ9ZH6EV">
    <mxGraphModel dx="391" dy="219" grid="1" gridSize="10" guides="1" tooltips="1" connect="1" arrows="1" fold="1" page="1" pageScale="1" pageWidth="3300" pageHeight="4681" math="0" shadow="0">
      <root>
        <mxCell id="0" />
        <mxCell id="1" parent="0" />
        <mxCell id="1KD6S-VWZs8uBKRMwEth-1" value="" style="shape=image;verticalLabelPosition=bottom;labelBackgroundColor=default;verticalAlign=top;aspect=fixed;imageAspect=0;image=data:image/jpeg,/9j/4AAQSkZJRgABAQAAAQABAAD/2wBDAAgFBgcGBQgHBgcJCAgJDBMMDAsLDBgREg4THBgdHRsYGxofIywlHyEqIRobJjQnKi4vMTIxHiU2OjYwOiwwMTD/2wBDAQgJCQwKDBcMDBcwIBsgMDAwMDAwMDAwMDAwMDAwMDAwMDAwMDAwMDAwMDAwMDAwMDAwMDAwMDAwMDAwMDAwMDD/wAARCAPoA+gDASIAAhEBAxEB/8QAHwAAAQUBAQEBAQEAAAAAAAAAAAECAwQFBgcICQoL/8QAtRAAAgEDAwIEAwUFBAQAAAF9AQIDAAQRBRIhMUEGE1FhByJxFDKBkaEII0KxwRVS0fAkM2JyggkKFhcYGRolJicoKSo0NTY3ODk6Q0RFRkdISUpTVFVWV1hZWmNkZWZnaGlqc3R1dnd4eXqDhIWGh4iJipKTlJWWl5iZmqKjpKWmp6ipqrKztLW2t7i5usLDxMXGx8jJytLT1NXW19jZ2uHi4+Tl5ufo6erx8vP09fb3+Pn6/8QAHwEAAwEBAQEBAQEBAQAAAAAAAAECAwQFBgcICQoL/8QAtREAAgECBAQDBAcFBAQAAQJ3AAECAxEEBSExBhJBUQdhcRMiMoEIFEKRobHBCSMzUvAVYnLRChYkNOEl8RcYGRomJygpKjU2Nzg5OkNERUZHSElKU1RVVldYWVpjZGVmZ2hpanN0dXZ3eHl6goOEhYaHiImKkpOUlZaXmJmaoqOkpaanqKmqsrO0tba3uLm6wsPExcbHyMnK0tPU1dbX2Nna4uPk5ebn6Onq8vP09fb3+Pn6/9oADAMBAAIRAxEAPwD3+iiigAooooAKKKKACiiigAooooAKKKKACiiigAooooAKKKKACiiigAooooAKKKKACiiigAooooAKKKKACiiigAooooAKKKKACiiigAooooAKKKKACiiigAooooAKKKKACiiigAooooAKKKKACiiigAooooAKKKKACiiigAooooAKKKKACiiigAooooAKKKKACiiigAooooAKKKKACiiigAooooAKKKKACiiigAooooAKKKKACiiigAooooAKKKKACiiigAooooAKKKKACiiigAooooAKKKKACiiigAooooAKKKKACiiigAooooAKKKKACiiigAooooAKKKKACiiigAooooAKKKKACiiigAooooAKKKKACiiigAooooAKKKKACiiigAooooAKKKKACiiigAooooAKKKKACiiigAooooAKKKKACiiigAooooAKKKKACiiigAooooAKKKKACiiigAooooAKKKKACiiigAooooAKKKKACiiigAooooAKKKKACiiigAooooAKKKKACiiigAooooAKKKKACiiigAooooAKKKKACiiigAooooAKKKKACiiigAooooAKKKKACiiigAooooAKKKKACiiigAooooAKKKKACiiigAooooAKKKKACiiigAooooAKKKKACiiigAooooAKKKKACiiigAooooAKKKKACiiigAooooAKKKKACiiigAooooAKKKKACiiigAooooAKKKKACiiigAooooAKKKKACiiigAooooAKKKKACiiigAooooAKKKKACiiigAooooAKKKKACiiigAooooAKKKKACiiigAooooAKKKKACiiigAooooAKKKKACiiigAooooAKKKKACiiigAooooAKKKKACiiigAooooAKKKKACiiigAooooAKKKKACiiigAooooAKKKKACiiigAooooAKKKKACiiigAooooAKKKKACiiigAooooAKKKKACiiigAooooAKKKKACiiigAooooAKKKKACiiigAooooAKKKKACiiigAooooAKKKKACiiigAooooAKKKKACiiigAooooAKKKKACiiigAooooAKKKKACiiigAooooAKKKKACiiigAooooAKKKKACiiigAooooAKKKKACiiigAooooAKKKKACiiigAooooAKKKKACiiigAooooAKKKKACiiigAooooAKKKKACiiigAooooAKKKKACiiigAooooAKKKKACiiigAooooAKKKKACiiigAooooAKKKKACiiigAooooAKKKKACiiigAooooAKKKKACiiigAooooAKKKKACiiigAooooAKKKKACiiigAooooAKKKKACiiigAooooAKKKKACiiigAooooAKKKKACiiigAooooAKKKKACiiigAooooAKKKKACiiigAooooAKKKKACiiigAooooAKKKKACiiigAooooAKKKKACiiigAooooAKKKKACiiigAooooAKKKKACiiigAooooAKKKKACiiigAooooAKKKKACiiigAooooAKKKKACiiigAooooAKKKKACiiigAooooAKKKKACiiigAooooAKKKKACiiigAooooAKKKKACiiigAooooAKKKKACiiigAooooAKKKKACiiigAooooAKKKKACiiigAooooAKKKKACiiigAooooAKKKKACiiigAooooAKKKKACiiigAooooAKKKKACiiigAooooAKKKKACiiigAooooAKKKKACiiigAooooAKKKKACiiigAooooAKKKKACiiigAooooAKKKKACiiigAooooAKKKKACiiigAooooAKKKKACiiigAooooAKKKKACiiigAooooAKKKKACiiigAooooAKKKKACiiigAooooAKKKKACiiigAooooAKKKKACiiigAooooAKKKKACiiigAooooAKKKKACiiigAooooAKKKKACiiigAooooAKKKKACiiigAooooAKKKKACiiigAooooAKKKKACiiigAooooAKKKKACiiigAooooAKKKKACiiigAooooAKKKKACiiigAooooAKKKKACiiigAooooAKKKKACiiigAooooAKKKKACiiigAooooAKKKKACiiigAooooAKKKKACiiigAooooAKKKKACiiigAooooAKKKKACiiigAooooAKKKKACiiigAooooAKKKKACiiigAooooAKKKKACiiigAooooAKKKKACiiigAooooAKKKKACiiigAooooAKKKKACiiigAooooAKKKKACiiigAooooAKKKKACiiigAooooAKKKKACiiigAooooAKKKKACiiigAooooAKKKKACiiigAooooAKKKKACiiigAooooAKKKKACiiigAooooAKKKKACiiigAooooAKKKKACiiigAooooAKKKKACiiigAooooAKKKKACiiigAooooAKKKKACiiigAooooAKKKKACiiigAooooAKKKKACiiigAooooAKKKKACiiigAooooAKKKKACiiigAooooAKKKKACiiigAooooAKKKKACiiigAooooAKKKKACiiigAooooAKKKKACiiigAooooAKKKKACiiigAooooAKKKKACiiigAooooAKKKKACiiigAooooAKKKKACiiigAooooAKKKKACiiigAooooAKKKKACiiigAooooAKKKKACiiigAooooAKKKKACiiigAooooAKKKKACiiigAooooAKKKKACiiigAooooAKKKKACiiigAooooAKKKKACiiigAooooAKKKKACiiigAooooAKKKKACiiigAooooAKKKKACiiigAooooAKKKKACiiigAooooAKKKKACiiigAooooAKKKKACiiigAooooAKKKKACiiigAooooAKKKKACiiigAooooAKKKKACiiigAooooAKKKKACiiigAooooAKKKKACiiigAooooAKKKKACiiigAooooAKKKKACiiigAooooAKKKKACiiigAooooAKKKKACiiigAooooAKKKKACiiigAooooAKKKKACiiigAooooAKKKKACiiigAooooAKKKKACiiigAooooAKKKKACiiigAooooAKKKKACiiigAooooAKKKKACiiigAooooAKKKKACiiigAooooAKKKKACiiigAooooAKKKKACiiigAooooAKKKKACiiigAooooAKKKKACiiigAooooAKKKKACiiigAooooAKKKKACiiigAooooAKKKKACiiigAooooAKKKKACiiigAooooAKKKKACiiigAooooAKKKKACiiigAooooAKKKKACiiigAooooAKKKKACiiigAooooAKKKKACiiigAooooAKKKKACiiigAooooAKKKKACiiigAooooAKKKKACiiigAooooAKKKKACiiigAooooAKKKKACiiigAooooAKKKKACiiigAooooAKKKKACiiigAooooAKKKKACiiigAooooAKKKKACiiigAooooAKKKKACiiigAooooAKKKKACiiigAooooAKKKKACiiigAooooAKKKKACiiigAooooAKKKKACiiigAooooAKKKKACiiigAooooAKKKKACiiigAooooAKKKKACiiigAooooAKKKKACiiigAooooAKKKKACiiigAooooAKKKKACiiigAooooAKKKKACiiigAooooAKKKKACiiigAooooAKKKKACiiigAooooAKKKKACiiigAooooAKKKKACiiigAooooAKKKKACiiigAooooAKKKKACiiigAooooAKKKKACiiigAooooAKKKKACiiigAooooAKKKKACiiigAooooAKKKKACiiigAooooAKKKKACiiigAooooAKKKKACiiigAooooAKKKKACiiigAooooAKKKKACiiigAooooAKKKKACiiigAooooAKKKKACiiigAooooAKKKKACiiigAooooAKKKKACiiigAooooAKKKKACiiigAooooAKKKKACiiigAooooAKKKKACiiigAooooAKKKKACiiigAooooAKKKKACiiigAooooAKKKKACiiigAooooAKKKKACiiigAooooAKKKKACiiigAooooAKKKKACiiigAooooAKKKKACiiigAooooAKKKKACiiigAorN1zWtP0Cx+2avdx2ttvVPNkOBknAFWre5hureOe1mSeGQBkkjIZWB6EEcGgCxRRRQAUUUUAFFFFABRRRQAUUUUAFFFFABRRRQAUUUUAFFFFABRRRQAUUUUAFFFFABRRRQAUUUUAFFFFABRRRQAUUUUAFFFFABRRRQAUUUUAFFFFABRRRQAUUUUAFFFFABRRRQAUUUUAFFFFABRRRQAUUUUAFFFFABRRRQAUUUUAFFFFABRRRQAUUUUAFFFFABRRRQAUUUUAFFFFABRRRQAUUUUAFFFFABRRRQAUUUUAFFFFABRRRQAUUUUAFFFFABRRRQAUUUUAFFFFABRRRQAUUUUAFFFFABRRWX4k1M6Lot1qK2V1fG3UN9ntE8yWTJA+Ve+M5PtmgDUorydvjXIv/ADI/iT/gVvj+lNPxucf8yP4h/wC/P/1qAPWqK8j/AOF4P/0JGv8A/fr/AOtTv+F3v/0I/iH/AL8//WoA9aoryL/heEn/AEI+v/8Afr/61J/wvF/+hH17/v3/APWoA9eoryD/AIXi/wD0JGvf9+//AK1H/C83/wChI17/AL9//WoA9foryD/heb/9CRr3/fv/AOxo/wCF5v8A9CRr3/fv/wCxoA9foryD/heb/wDQka9/37/+xo/4Xm//AEJGvf8AfH/2NAHr9FeQf8Lzf/oRtd/74/8AsaT/AIXm/wD0I2u/98f/AGNAHq15aW1/aSW99BFc28w2vFKgZWHoQeDXn914C1fwvM978NtS+yISXk0a9JktJT32knKE+x/ECsn/AIXk3/Qja7/3x/8AY0H45uf+ZH13/vj/AOxoA6Pw78TrG51EaN4mtJvDmt9Ps16cRyH1jk+6wPbpntmu9rwnxJ8T9M8TWLWWt/DrVb2A9PMQhk91YLlT7giuT0T4n6z4IvY4baDU5dBZsLZauPniX0SUAH6DGB6d6APqKiqWn30WoWNte2T77a5iWaJtpXcjAFTggEZB6EZq7QAUUUUAFFFFABRRRQAUUUUAFFFFABRRRQAUUUUAFFFFABRRRQAUUUUAFFFFABRRRQAUUUUAFFFFABRRRQAUUUUAFFFFABRRRQAUUUUAFFFFABRRRQAUUUUAFFFFABRRRQAUUUUAFFFFABRRRQAUUUUAFFFFABRRRQAUUUUAFFFFABRRRQAUUUUAFFFFABRRRQAUUUUAFFFFABRRRQAUUUUAFFFFABRRRQAUUUUAFFFFABRRRQAUUUUAFFFFABRRRQAUUUUAFFFFABRRRQAUUUUAFFFFABRRRQAUUUUAFFFFABRRRQAUUUUAFFFFABRRRQAVDNKlvEzyuEjQFmZjgAd8mq2sXk9jpdxd2lpLfTRIWjtoiA0rDooJ45rzyLwf4m8cSi7+IV2bDTSQyaDYy4Ujt50gOWPsD9CvSgDRuviHJrF++k/D+xXWrqNtk19KSllbH1Zxy59l69jUOk/Cyzk1x9e8X38niLU3O5BOm23h9ljyeB2BOPbPNdzpOmWek2cdnptrDa20QwscSBVH4Dv796u4oARQFAAGAO1OoooAKKKKACiiigAooooAKKKKACiiigAooooAKKKKACiiigAooooAKKKKACiiigAooooAKKKKACiiigAooooAKKKKACiiigAooooAKKKKACiiigAooooAKKKKACiiigAooooAKKKKACiiigAooooAKKKKACiiigAooooAKKKKACiiigAooooAKKKKACiiigAooooAKKKKACiiigAooooAKKKKACiiigAooooAKKKKACiiigAooooAKKKKACiiigAooooAKKKKACiiigAooooAKKKKACiiigAooooAKKKKACiiigAooooAKKKKACiiigAooooAKKKKACiiigAopOKiNzCOs0Y/4EKAJqKr/bbYfeuYR/wMf403+0LT/n7g/wC/i/40AWqKgW7t5PuzxN/uuDU9ABRRRQAUUU2R1QZdgB70AOoqD7TAPvTxj/gYppvbQdbqIf8AbQf40AWaKrfbrP8A5+4f+/g/xqSOaKTmOVH/AN1gaAJaKKKACiiigAooooAKKKKACiiigAooooAKKKKACiiigAooooAKKKKACiiigAooooAKKKKACiiigAooooAKKKKACiiigAooooAKKKKACiiigAooooAKKKKACiiigAooooAKKKKACiiigAooooAKKKKACiiigAooooAKKKKACiiigAooooAKKKKACiiigAooooAKKKKACiiigAooooAKKKKACiiigAooooAKKKKACiiigAooooAKKKKACiqmo6haaXZS3moXEdtbQrueWVtqqPc15fP4r8UfEaZ7PwFG+k6GCUl125QhnxwRCp5/Hr6lDQB3Xijxt4c8LgjXNWt7WTGRFkvKR67FBbHvjFcafjz4UyRa2es3ij+OG0BB/NhWx4W+FfhnQP8ASZbT+1dSc7pLy/8A3zux6kA5C/UDPqTXcKoQYHCjgAUAeWH49eHv+gF4kb/tzj/+OUn/AAvrQP8AoX/En/gHH/8AHK9XooA8m/4X94dX72g+Il/7dY//AI5SJ+0H4SDhZ7DWoAe8lvHgflITXrVQyRpNGySIro4wQwyD9QaAMDwp488OeKwRomqQ3EoGTA2UlHr8hAJA9QCPeulrzbxv8J/C+pQS6lbFfDl7bAzC/s8RKmBnc6ggYHUkbT715Vp/jTxf4hk0jwtq2uT22k6jdtaR6xb2riS9UEKFVzgkEkAkAEb/AJs8igD1/wAW/FLT9K1L+xfD9rN4h11iVFpacrGR13uAQMdwMkd8VkJofxW8SHzdT8RWXheF+lrZQiWRPq2ev0c12vhDwfonhGwFpoVosIOPMlb5pZSO7P1P06DsBXQd6APLP+FXeKm+98Udbz7IwH6SUz/hU/if/oqOv/m//wAdr1eigDyf/hU3if8A6Kn4g/77k/8AjtN/4VN4s/h+KmvD6iQ/+1q9aooA8gl8DfE7Rv8ASNC8fNqbLyYb+MgP7DcXH6j61Ponxbn03UE0b4k6S+gX7HC3IUm2l7Zzk4HuCy+pFesV578Y9U0iHQYdK1HRxrmoaoxhsLAD53k/v7h8yAZ5IIPOPUgA39X8Y+HdK0Y6td6zaixDMivFIH8x1OCiBcliCOg6d+K4iPXPHvxDO7w3APCugP8Adv7pN1zMvqqdgfbHs1cv8FvAFpB4t1fT/F9sl1qGiLbvb27vvhTzFLFgOjEfKOmAeeTyPoEAYHFAHlg+B2jXZ83xDret61dty8k1zgE+wwSPxJp//CgvA/8Az733/gUf8K9RxRQB5f8A8KD8Df8APte/+BTf4Uf8KC8Dn/lhfD/t6P8AhXqFFAHlb/s/eCW6f2in+7cD+qmqMvwj1zwz/pPw88W31rInIs71g0UnscDb+an6ivYqKAPItJ+Mb6PNJpXxK0ufRtRhTImiQvFOB3UDPXsQWU+o6V1Hjb4kaR4Y8u0j36rq1wB9n0+y+eSTIyCcZwD26k9ga5P4uXUvjy9m8FeG9Lt9QubLEt7qEw+SxPUIjDnecYIH0weSt79n/wAP6FD4HsNbsbRW1G7V1uLl/mkDK5UqCfurx0GMjGc0ARR+HPiF41/0jxJrZ8L6e/3dO07/AF230ZweCR15I/2RUq/AXwex33cuq3cneSe6yx+uFFepjpRQB5d/woPwP/z733/gUf8ACl/4UH4H/wCfe+/8Cj/hXqFFAHlzfALwP/zxvx9Lk/4VBL+z94NIzBNq0Dj7rJcLkH15U16xRQB4zJ4Z+IvgH/SfC+st4m01OW0+9yZQo7Jyc4/2SOf4TXTeBvivoniu9g0wxT2OtSeYHspkOUZBlgGwAeM4zg8HIFegV4B8e9T0Sz8WaVd6GqHxTp1xHNcyRjCLGCNomZSOd2wDnO04JGRQB7N4k8TaR4XsDe65fR2kPRd5yzkdlUck+wFcCvxC8Y+KPn8B+D2+wsflvtVfy0ceoQMMj6M30q74Z+F6/wBoDX/Hd9/wkOuPgjzRm3t+4VEOAcHpkAegB5r0gAAAAYxQB5aLX41TAt9v8M2+f4NrnH/jp/nSf2f8a/8AoM+GR/wBv/jdeq0UAeUf2b8bf+g74b/74P8A8apn9nfG5f8AmM+HX/4B/wDa69aooA8iab42aaPOa10PVQvWJSFJHtyv8/wq74b+MVlLfLpHjHTrjwzqvA23WfJb0O8gFQexIx7mvUKwfFPhbR/FVgbLW7CO6j52MRh4j6qw5U/Tr34oA2kZZFDoQyMMgjkEGpK8Y+HOjaj4A+Kd14VbUDeaXqGn/arZ5s7wEYgKOwYZfIHBGDx0r2egAooooAKKKKACiiigAooooAKKKKACiiigAooooAKKKKACiiigAooooAKKKKACiiigAooooAKKKKACiiigAooooAKKKKACiiigAooooAKKKKACiiigAooooAKKKKACiiigAooooAKKKKACiiigAooooAKKKKACiiigAooooAKKKKACiiigAooooAKKKKACiiigAooooAKKKKACiiigAooooA8jttOl+Kfi3U7jW5seGtBv3srfT42IF1PHjdJIe45GB6HHHO71S1gitbdILaOOKKJQqIgCqoHQADgAVwnwRXGleI/U+IbzP5rXodABRRRQAUUUUAFFFFAHnvx+kcfDK/hRyn2iaCEkehlXNUvjTYwaR4L0nUtOhWBPDeoW1zEka4Cxhgu0D05H5Vd+Po/4t1MfS8tv/Rq11Xi/R08QeF9U0psf6bbSRKT0ViPlP4HBoA04pEmjWSMq6OAykdCOoNS1xfwd1Z9X+HGjTTZ86CI2soPUNESnPuQoP412lABRRRQAUUUUAFec6v8Avfj1oYbkQaNPKvsS5Un8q9Grz3U/+S86R/2A5v8A0ZQBX1Y/2F8dNKvANsHiHTpLNj282I7wT742qPrXpVec/HMGz0LSNej4k0XVre53f7Bbaw+hyK9GoAKKKKACiiigAooooA87+DQ3N4znYfvJPE14CfYbMD8MmofhEf7H1rxd4Vc4Gn6ibq3U/wDPGYblA+mPzNWPgz/qPGPt4ovv/ZKjuF/s74+WkqfLHq+iPEw/vSRyZz9QoAoA9GooooAKKKKACiiigDL8UXj6f4b1W+hbEtraTTIfQqhYfqK8v0TwTa3vwIvBDCZdT1iy/tCa4b5pZ5s+agLHnqAB9SepNekeOxnwRr/vp1x/6Kaqnws/5Jv4c/7B0H/oAoAk+Hetf8JD4J0fVGbdJPbJ5p/6aL8r/wDjwNdHXnHwRH2PSNd0boNJ1u6to09I8hl/AktXo9ABRRRQAUUUUAFFFFAHm3xTzo/i/wAFeJAQsUF+2n3DeiTrgE+wwTXpNcZ8ZNMGr/DfW4gPnt7c3cbDqGiO/j3wpH41ueE9TOs+GNK1Nvv3lnDO3+8yAkfgTQBr0UUUAFFFFABRRRQAUUUUAFFFFABRRRQAUUUUAFFFFABRRRQAUUUUAFFFFABRRRQAUUUUAFFFFABRRRQAUUUUAFFFFABRRRQAUUUUAFFFFABRRRQAUUUUAFFFFABRRRQAUUUUAFFFFABRRRQAUUUUAFFFFABRRRQAUUUUAFFFFABRRRQAUUUUAFFFFABRRRQAUUUUAFFFFABRRRQAUUUUAeffBT/kGeJvbxFe/wA1r0GvPvgv/wAeHij/ALGS9/mteg0AFFFFABRRRQAUUUUAeffH3/km10fS5tj/AORkr0DtXAfH3/kmd7/18W3/AKOSvQKAPOvg5/oj+LdJ6Cy164Ma+kb7Sv8AI16KOleeeCB9l+K3j2z6K5srpf8AgUR3frXodABRRRQAUUUUAFef6r/yXbRffRZ//Rgr0CvP9V/5Lron/YFn/wDRgoAu/Gez+3fC7xDFjO2387/vhlf/ANlrofDN4dQ8O6Ze53fabSKbPruQH+tVvGsP2jwdrkOOJNPuEx9Y2FUPhPN5/wANvDr9cWESf98rt/pQB1VFFFABRRRQAUUUUAee/Bnp40Hp4pvv/ZKZ8Qv9D+JXgDUOi/arm0c+vmRgKPzzUnwd6+NP+xqvv/adN+MmI5fBdyPvR+JbNfwbfn+VAHodFFFABRRRQAUUUUAYvjj/AJEvXf8AsH3H/opqofCv/km/hz/sHw/+gCtDxp/yJ+uf9g+4/wDRbVn/AAq/5Jt4c/68If8A0EUAYnw/xafE7x/p/QGe0u1Hr5kRLH88V6JXnmjfuvjrr6DpPpFvKf8AgL7a9DoAKKKKACiiigAooooAp6taLfaXd2bfduYHhOfRlI/rXIfAu5a6+FmiNJ96JJISPTZK6gfkBXd1558DP3fhvVrIfdsdau7dR6AMG/8AZqAPQ6KKKACiiigAooooAKKKKACiiigAooooAKKKKACiiigAooooAKKKKACiiigAooooAKKKKACiiigAooooAKKKKACiiigAooooAKKKKACiiigAooooAKKKKACiiigAooooAKKKKACiiigAooooAKKKKACiiigAooooAKKKKACiiigAooooAKKKKACiiigAooooAKKKKACiiigAooooAKKKKAPP/gz/AMefin/sZL7+a16BXn/wZ/48PEx9fEd8f/Hlr0CgAooooAKKKKACiiigDgPj3/yTW8/6+LX/ANHpXf15/wDHc7/ALwj7017axqPU+cp/pXoFAHneifJ8dPES/wDPTSrZj+DYr0SvPNH/AOS8a9/2B7f/ANDr0OgAooooAKKKKACvP9V/5Lrontotx/6MFegVwFz+++PFin8Vv4ellP0a4CigDrfE3/Iu6p/15zf+gGue+DH/ACS7w/8A9e3/ALMa6HxN/wAi5qn/AF5zf+gGuf8Agz/yS/w//wBew/8AQjQB2VFFFABRRRQAUUUUAeffB3/mcz6+Kb7/ANkpPjV/x6eE/wDsZrL/ANnp/wAGfnsfE9yPu3PiO+mX6FlH9Kj+NX/Hp4S9/E1j/wCz0Aeh0UUUAFFFFABRRRQBjeM/+RP1z/rwuP8A0W1Z/wAK/wDkm/hz/sHw/wDoIq946YJ4L11ycBdOuD/5CaqnwwXZ8OvDa+umwH84waAMPTv+S+ar/wBgGL/0dXoVee6d/wAl81X20KH/ANG16FQAUUUUAFFFFABRRRQAV558GOI/GI9PFF9/7Tr0OvPPgv8A6vxl7+KL7/2nQB6HRRRQAUUUUAFFFFABRRRQAUUUUAFFFFABRRRQAUUUUAFFFFABRRRQAUUUUAFFFFABRRRQAUUUUAFFFFABRRRQAUUUUAFFFFABRRRQAUUUUAFFFFABRRRQAUUUUAFFFFABRRRQAUUUUAFFFFABRRRQAUUUUAFFFFABRRRQAUUUUAFFFFABRRRQAUUUUAFFFFABRRRQAUUUUAFFFFABRRRQB5/8EP3nhO8uicm71W8mP1MpH9K9Arz74F8eCpE/556jdp/5FJr0GgAooooAKKKKACiiigDz/wCNeP7D0Pd9z+3bLd9N5r0CuA+N3/Is6WfTWbM/+RK7+gDzzRPm+O3iH/Y0m3H5tmvQ6868If6V8YfHNx1FtDY2w+pjLH8iK9FoAKKKKACiiigArgE+X4/yj+94ZU/+TRFd/Xnx/wCThF9/C5/9K6AOq8XyiDwlrMzdEsZ2P4RsayPhFGYvhn4eX1skb8+f60nxfvPsPwz8QzZxutHh/wC/mE/9mrX8G2n2Dwjo1kRhraxgiI9xGooA2KKKKACiiigAooooA4D4If8AIrXy9xq12D/38NR/GFhJdeCLYdX8S2smPZN2f5074If8i5q/trd5/wChiovHx+3fFPwHpw5ET3V4/ttjG0/mDQB6NRRRQAUUUUAFFFFAHMfFEsnw58Rsn3v7OnH4FCD+lXPA6CPwZoSLwqafbAfTylqp8Thn4deJP+wZcH/yG1WvAbbvA/h9vXTrY/8AkJaAOX0I+d8dPEkn/PtpVtCf+BHdXoledfDbN58QfiBqZ5Vr6CzU+nkxlSP1Fei0AFFFFABRRRQAUUUUAFeefBT5rHxVKOk3iS9kH0Owf0rvpZBHEzucKoJJ9AK4D4BK0nw9ivmGDqN5c3R/GUr/AOy0AeiUUUUAFFFFABRRRQAUUUUAFFFFABRRRQAUUUUAFFFFABRRRQAUUUUAFFFFABRRRQAUUUUAFFFFABRRRQAUUUUAFFFFABRRRQAUUUUAFFFFABRRRQAUUUUAFFFFABRRRQAUUUUAFFFFABRRRQAUUUUAFFFFABRRRQAUUUUAFFFFABRRRQAUUUUAFFFFABRRRQAUUUUAFFFFABRRRQAUUUUAee/Az/kUb1e66rdg/wDfyvQq89+EJ+x3njDRm4az1yaVB6RSgMn8jXoVABRRRQAUUUUAFFFFAHnvx4PleB47o/dtNQtZ2PoBKB/WvQq5L4raeupfDfxBARuK2ckyj1aMbx+q1peD9Q/tPwfo+oyPzPYwzOT2JjBbP45oA5T4Pj7VqPjXVW5Nzr08Kn1SMAL+jV6NXnXwCBk8BG+YYN/f3NyM98yFf/Za9FoAKKKKACiiigArz3Um+y/HjSZm4F9oU1svuyS+YR+VehV598TALHxf4F1ccGPVWsc+1xGVx/47QBH8f23/AA9ay/5/r22t/rmQH/2WvQ1AUYFeb/FtzqOv+CvD0Y3Pdaul66/9MoRls/gx/KvSqACiiigAooooAKKKKAPPPg1mKHxVYvw9r4hu1x/skqQfx5qO5/0n9oKyj+8tn4feX6Fpyv8AIipfCAFh8XPGln92O8itL6NffYVc/iareBXOtfFjxjric29oIdKgb1K8yAfRl/WgD0uiiigAooooAKKKKAOd+I6b/h94jReWOl3OP+/TUnw5kEnw/wDDjg5zplt+YiUfzrav7VLyxuLSUZjuImib6MCD/OvOPhvr50f4Kfbr1h5mixXEUgP96N3Cr/6CBQBa+BzedpHiO9PJvdfu58+oJUf0NejVw/wQ0uTS/hpo63APn3KNduT1PmMWH/jpFdxQAUUUUAFFFFABRRRQBh+Obk2PgzXbpDhoNPuJF+ojYj9az/hLaiz+Gvh2MDG6yjl/77G7/wBmql8br9dO+GOtPnLzxLbRjuxkYLgfgSfwrpvDVidM8OaXYMMNaWkMBHuqAf0oA06KKKACiiigAooooAKKKKACiiigAooooAKKKKACiiigAooooAKKKKACiiigAooooAKKKKACiiigAooooAKKKKACiiigAooooAKKKKACiiigAooooAKKKKACiiigAooooAKKKKACiiigAooooAKKKKACiiigAooooAKKKKACiiigAooooAKKKKACiiigAooooAKKKKACiiigAooooAKKKKAPPfDv+g/GvxVa9BqNhaXqj12ZiJ/M16FXnvjDGhfFTwzr8g22uoQyaNcSdlZjvhB+rZFehUAFFFFABRRRQAUUUUAVb+1S9srm1k+5PG0R+hBB/nXj+m+Jm0b9nTexI1CJJdKRB94TGRkAHuFO78K9RvPE2hWZvftesWMP2EqLkPOoMJYEqGGeCcHA6ntXgQ1bSLn4j/bPtN23gWLVzqJufssnkfbWQcFscDcO46E8YOaAPdvAmi/8I54P0nSCAHtbZFkx08w8v+bE10FVrO6t761jubKeO4glG6OWJgysPUEcGrNABRRRQAUUUUAFcB8cI3TwMdThQvJpN7b34A6/JIAfyDE0fFj4kWvgXT44oFS51i7Gbe3OdqL08x8c7c8AdSeB0JHL2N/48+K3hxfs40zQtCvYTBNcMvnTXPVZNiZwqlgQASCP7x60AavgyZfGPxW1jxTG3naZpEQ0qwk/hZvvSOPpkjPcOK9SryTwfqj/AAqso/DPizT2t9MSd/s2twIWgnDMSPOxko3OOeMD0GT6hb3lrcYNvcwy7lWQbJA3yt0bjsex70AW6KKKACiiigAopmduS3AHJJrwDxh8XfEWr+Lra08BoxsYrg28Mnk+YL6QD5jgAkoAc4XnGGPUAAHRfFDX18C/EJPELoWF/oM1lCNuQ1wkgZc/99AH2rr/AIS+HpPDfgawtrtSL65Bu7st94yyckH3Awv4VyOs/CrXtStU1fUvE02reJbORLi0SZAtmjqwYoEx0OMZ4HqK6rwt4+t9Sv10XXbKfQdex/x5XXCynuYpPuuPpz7HGaAO1FFQ288VxEJIJElRujIwYH8RU1ABRRRQAUUVh+LfEdj4T0C41bVJAsNuvCj70rn7qKO5J/LqeATQBuV87XguNQ1TU/hraBwdQ8Tz3VwR0jsgEkP5nke4x3qTwj4r+IvxA8TajYWd+NGtpEWR5fs28WUf8KIccOwOfmIJxkYxXQWWjwfCz4g2+qarf3F/p+t2xtbjVb5gzw3QbcNz4+VGUADJ7cnAoA9ghjSCJIolCRxgIqr0UDgAVLUMUkc0KyQuro4BV0bIYdiCOoqagAooooAKKKKACisvxHrth4b0WfVNVmWC1t1yx7k9lUdyTwBXnGmfGG98T2wi8H+E76/1Elg4eRVggGflLSdMkc7ePTJoAt/EP/ip/iL4Z8IRfNBayf2vqAByAicIrfU5BH+0DXp4FcR8OfCOoaRPqeveJp4rrxBrDhrgxf6uCMfdiXPYd/oBzjJ7igAooooAKKKKACiiigAooooAKKKKACiiigAooooAKKKKACiiigAooooAKKKKACiiigAooooAKKKKACiiigAooooAKKKKACiiigAooooAKKKKACiiigAooooAKKKKACiiigAooooAKKKKACiiigAooooAKKKKACiiigBCcVTn1GCNiN2SPSvN/jTqeraRd6VdwyONN8xhKqHHzYGM+vetzS72O/sYbmFtySIDmsK03FaGlOKk7M6b+2If7rYp/wDatv8A7Vc/RXJ9YkdPsYnSpqNu38f51Ms8b/ddT+NcqKQM3qatYl9UJ4ddzrdw9RSb1HUgVy3nSf32pDK5/jY1X1ryJ+r+Z1YdT0YGnVySyMrAhmGKuQ6rNGOfmAqo4lPcl0GtjoqSsMa24/5Z5/GrUOrxSfeBU1qq8GQ6Ul0NPNFRRTLKMqc1IK1TvsZNWFooopgFFFFABRRRQBjeKNCsPEmj3OlapG0kEwHKnDI2cqynswPI/WuOF/4r8AYGuGXxN4eXgX0Mf+mWo7GRB/rFHdhz1J7CvSqKAOQ8BfEDQ/HNq76VNJHcQ/62zmwJEGcbuCQyn1BI9cGuvrjfGXgiHXNmo6O40jxDZsXtb+FdvPUpIB99G7g5xn6gy+AfFb+Iba5stUtjY69pbiG/tGPRuzr6ow5B/nwSAdbRRRQAV5p8Z/iC3hXSptP0ZvN1uePeNo3fZIicGVvTrgZ789Bg9P498Tr4W8Py3qw/aLuV1t7K37zztwiAdfc+wNZ3gXwYmk6bcXGuiO/1vVHE2ozyAOGfqIxkY2J0A6ZGfQAA8x+DXwtGpX8uv+KYPtlk2TbRXqNuuZCQTOyk/d6gBgSc5IHFe8LY2otBZLawi027fIEYCbfTbjGParWOnbFLQB5hrfwvvYLjzfAviG58OoZxcGzXLW/mDI3KoPyggnK4Kn0GBWt4O8Y3dxqr+GvFlvHp3iK3XcNv+pvox/y0iPfpyOo/AgdzXMePfCkXinTFRG+y6laN59hfLw9vMOQcjnaSBkdx7gUAdPRXJfDvxNN4j0R11OJbfWdNlNnqFv8A3JV43Af3WHI7dQM4rraACuZ8ceKYfCuki48o3N/dOLexs4/v3Mp+6o9vU9h7kCumrzTwTGfGnjS/8ZXv7ywsZH0/RkP3QqnEkw92PAPpkdhQBgw/B/U9b19Na8Ya00st5Dm/hgGMktxAjY+VAoCkg5PI4ByfYLO0t7C0itrOFIIIVCRxIMKqjoABVmigCC7t4bu3eC6iSaGQFXjdQyup6gg9RXmt/wDCOHSr99Z8Card6NqaD9zC777VuclGUgttPpkgdQK9QooA5PwN4v8A+EjS5sdRtTp2v6cdt7Ysfuns6H+JD2POPyJ62uB+JugXIWHxZ4eG3XtFBkUAf8fUA5eB/UYyR3z05Oa6rw3rNt4h0Ox1exbdb3kQkT1Geqn3ByD7igDUoorlfiX4il8NeErq9sxv1CUra2SAZLzSHauB3x97HfFAHPeJ7u88f+Irjwho1w9totiQNavomw0hP/Lsh9T/ABHt0Po2v4K+GuheD7ua706OSS5lZgkszZMEZOfLQdh6nqe5rQ8AeGY/Cnhm201T5lxjzLmbqZp25dyTycnjnsBXSCgArE8S+G9J8T2Js9bs1uUU7kflXjbsUccqfofrW3RigDyZfCur/CqM6h4RubzWNEUlr7Srhg0gXvJCQANwHUY5A79vRfD+tWHiDSLbU9InE9pcruVh1HqCOxB4I7GtSvMbuIfDvxzb3dpiPw54lnEFxCPuWl433JFHQK/Q9h16ACgD06iiigCpqV9b6bZT3t9MsNtboZJJG6KoGSa8rTwvcfFtJtc8SSXNlo7gro1kuAyJn/j4cdCzAcA5AB7jBOx8RC3ijxVpHgiJ2+ySD+0tW2tjNujYSM47M/B7jANegxxLEipGoVFACqBgADpgUAZfhbw7pfhnS1sdIt/Ki3F3dmLPK56u7HlmPr+XFaF9ZWuo2ctpfW0d1byja8UqBlYe4PWrPaloA8w1PwR4j8MQXLfDLU1t7adSTpt43mRxPnO+EsCFPqp4Pr0xqeDfG1ze3v8Awj3i+y/sbxIiBhEWBiu1x9+JgSD7rk498HHd1zfjnwhZ+LNLEFw7W93AfMtL2IYktpeoZSOcZAyM8/XBAB0lFcZ8OfE93q9veaPr0awa/o7i3vUHAlB+5Mvsw5+voCK7OgAqveXlvYWc11dypBbwIZJZHOFRQMkk+wqxXmvjUv428ZW3gqFmXS7NEvtZdTjzBnMVvn3PzH25HSgDkfF2neLvi1JYajptlFB4dS5Is4Lt9olXBBuZFBBI7KoBOM8YJJ9O8A+C7DwToaWGnMZZXO+5nIwZn9do4UDoAOg9TzXRQxLbwrHEgSNAEVEXAA6AADoKn6DAoAAKWiigAooooAKKKKACiiigAooooAKKKKACiiigAooooAKKKKACiiigAooooAKKKKACiiigBKWq015DD996qSaxEv3VJrN1Ix3ZShJ9DUqlf6jZ2O37ZcRw7+m9gM/nVM60R/yzqpeX0d4oS4tUlAORuAOD7VDrwLVGbOi3ZAK8g06s/TrhZkG0hSoA2+lXxWsZKSujOScXZi0UUVQgooooAKKKKACiiigAooooAKKKKACiiigAooooAKKKKACiiigAooooAKKKKACiiigAooooAKKKKAM/XNJtNasHs76JJYn7MM1w+maBfeFg1sd0+nhj5bA5KDrg9+PXv35r0eo3jWRSjqGU9QamUVJWKi7O5yaEMoZTkGitt9GhywhJjB/h6gVCdGbtJ+lcE6Er6HVGsramVRWqdFcdGFQvpVwvRc1m6Ml0NFVj3KHJpatHT7kf8szUMsEsP3ozS9nLsPmj3I6KKKg0EooooDcliuJIjlWNbFnqiOAs3DevasOitYVJR2MZ01JHWJIrjKsD9KfXLQ3c0R+V8e1aNvrB4EwH1FdtOspbnNKi1sbFLUEFzFKP3bg/jU1bmAtFFFAwooooAK84+Jtu3hrVdO8eWCshsJFtdTRf+W9o7AEkdyjEEfrwK0fEvxG0vS75tJ0u2ude1of8uVku7Z/10fog+uSO4rkfGUXj/wAQeFdUfWLrS9E0/wCyyyNY28f2iWRVUttZzwCcdV6UAewxusihkYMpGQR3p9eL+DvBcms+EtJv7/xX4o3XFrHJ5MeolIkyo4VQvAHbmtf/AIVyiHdZ+LvFdsw6bNTJH4gjmnYC3Kv/AAlHxj8mT57DwparJt7G7mGVJ7HCD8DXo1eC/D+28bWdz4i1Hw/qdnqDDVpbaeHU4zvufKwA/mLyCQcY6Cu90H4lWsupxaR4osJ/DurScIlwwaCc/wDTOUcH6HHXAyaQHe0UUUAFVr28trC3e5v7mK1t0+9LM4RV+pJwK4zxb46uIdVbw54NtE1XXduZWdsW9iv96Vh39FHP6A5dp8O49QuU1DxxqE3iS+B3BZmK2sJPZIhgY+vXrigDAu/iB4d0f4sy6jotxLqttqtiIbyLT4WkZp4z8jL0DfLxwTgc11Q+Krsf3Pgbxcy9i1gFz+bVl+I7W1g+JHgey0+3htlh+2zGOGMIqp5QUcADqeK76gDz/wAZfFu3j8LapH/YfiHSb2W2eOBr6x8tQ7DaDu3HpnNdN8Kr/QG8HaVpuhanaXZtbVFljikG8PjLkofmGWJPIrB+OX/JNNR/55rJBv8Ap5yVqa98P/DutSC4ks/sd6h3R3ti3kzK394MOp/3gaAO/ory218Ta74Cuo7XxlKdW0GRwkesomJbcnoJ1GcjtvH45JwPTIZY54klhdZI5FDoytkMDyCD6UATUVma9rFjoWlz6lq1wlvaQLud27ew7kk8ADqa83J134kYudTuZ9A8LP8A6qyibZc3q9mlb+BD/dHUfg1AHT+IPib4Y0e7Nil3JqmoDI+xabGbiUkduPlB9iRXnnw48VeJbFNa0Xw94Ree3ttQkmjjvbpLVrNJfmWNkIJPc8HvXpGhaTonh61Fpo9pb2UX/TMDc3uzdWPuSTXK/Dy4jufFHjTU/MXy5tRWBDnr5SYOPzpc0e5XKzR/4ST4kL8x8J6Q3+wNQIP5kYrkvF/jHVbnxd4Yg8UeFL2xh0+4kv3hsplvGmKLhHULjAUnJzyBXqv2uH/non51weuXcUPxe0GVmXa2nXMS7f72Qx/Sjmj3DlZ3Hhfxt4e8U5Gi6nFNMPvWz5jmXHXKNg/jjHvXR15n4o0LQPEQE11bPDfpgxX9qfJuImHQhx1x2zkVT8PeN9Y8O6lDofi+ZLy3nOyx1fbtMp7RyjoG9+/vyaj2sXsPkl2PWaKwP7Zk4+RT+NYfi74gx+HYIoktje6pdnZa2cf3pW9T6KO5pKtB7DdOSOyvrq3sLN7i9uIreCIZeWVwiqPcngV5L8TfHfh/xP4S1TRtEttR1tzEWFxZ2rGK3kQ7lZpGwAARyRnioYfD91rt0up+PrkalODvh01GK2lt7BAfnPqTnPfPWtbxTqY03wdqnkLFbwR2coEcaBVGUICgDpknFL20W7IPZu1yPw/458eazoFjdWnhC0eOSFCLmfUV/fcD59qrlcnnB6Vf/wCEo+Itv80vg3Trpf7lvqYQ/mwxWd4NN3ZeDdItxM0ZjtI8jA+UlQcfrV/F18v+nT7h7j/Cn7WN7B7NnJ+E/iFZ2XjfxNrnivTb/TTdSQ2KyiIzw2nlLh42kXuSQxwK9l0bWNP1qzW80m+t723bpJC4YZ9D6H2PNeQfDiee3n8TReaTnWblnDAHduC4J47irN94X+z3rav4Tuf7C1gHLGAYguO+2SMfKQfUD35NDqxTsw9nK1z2alrgfBHxB/twS6frFl/Z2u2QH2i1J+Vx2kQ85Q/jj8iep/tmM9qbqxXUShJ9DVorkvE3jrTfDdgLrUSQCdkUSHMkzf3VXqT+nqa4W51Pxr4wVjcXh8LaW/AtrUZunX/ac/dPsvPYij2kd2HJI2fiNd2fhXx74c8Ufa4bfz3Ol6gpcAtC4JVyOuEYZJ+lak/xg8B277JPEUDH/YikcfmqkV5L438H6bpGhLNawrNe3F5CnnzkySsxbnLMT1HXsa7qHT9StxtttRSJPSO2RR+i0e0iHIzprT4reBbw7YvElopP/PUNEPzZRWd8ESupaDqPiSUq11rmoTXDnOWjjViqRn0AAOB6GsHX4Lr/AIR/Uf7QWyvittKQZ7VC2dpIP1HbisTwT4Q0q48K6ZqOn3F5oeryWyE3thcshkOP41JKkZ6jAzR7SIuRnvlLXlVh481nwpcR2vjgJf6exCJrNrHt2Z6edGPu5/vDj616NDq1nNAk0U6SROAyuhyGB5BBHaq547hysvnNAJqkmpWz9HqUXcB6Ov50uePcOWXYs0VCLiE9JV/OnCRT91gafMhWZJRQKKoQUUUZoAKKYXUdWAqNrqFTgyL+dS5JDsyaioRcwnpIn504Sxno6n8aFOL6hZktFQPcxJ951H41Wk1SBOjbql1IrqNQk+hforJfWVH3Y/8Ax6m/23/0z/Wp9vAv2U+xsUZFYj6w5+4gFQPqdy3QgVDxEUUqEmdDuFRvcRJ95wPxrm2vbhushqJ5Hc/OzH8KzeJ7ItYfuzon1KBP+WgNQPrMQ+6pNYeaOazeIkzRUIrc1zrXpGaYdZc9EArKoqPaz7leyiX31W4bo+PoBUD3s7dZH/76qCkqHOT6lKnFdBWYnkmk3UUVJVgooooDYntLg28oYfjXRWlylwgZTz3FctUsE8kDhkYit6VVw0MqtNT9Tq6WqNherPGMkB+mKu16EZKSujhlFxdmLRRRVCCiiigAooooAKKKKACiiigAooooAKKKKACiiigAooooAKKKKACiiigAooooAKKKKACiiigAooooAKSqF9qtlY5+03ATH1P8qy/+EwsHB+zQzz4OOFAH6mpbsOzex0dFc7/wkFzJuEVgynPHmOBx+APNRy6lqUuMSxRDvgZqedFKnI6Ws+/1PT7RSt3dQR54w7gE+1c5fxS3i7Lu9lKMMEBio9+9cpqUHhLStsl4EkZDjLLuOevpW9PD1q7tTi2FlHdnaXOzzT5RDKeQfao6811D4sWUCmLT7N328AlgOnSue1D4o6vcZW3jEIPTB/8ArV2RyCq9arSTN1VdtFc9rJA6kCq0uo2kPEtzEv1Ir59vPE+t3xO65mIPBAY81Qk+33JO4ysT1yTXdTyTCw+OoiHVqv4Ynv8Ac+LNGgyJLyMY9CP8azLr4jaHAxVWLMvoRz9K8RNheHqrGnjSLp+qdfWumODyqGkpF+yxMtkeuS/FTS0ziBzjnhxVWb4s2i/6uyLf8DrzFdEuz1UCnf2DddeKvmyeLtcuOCxUj0mP4vxJ8wsmDdsPWxp3xtsdyrd2cir03bxkf/Wrx3+wrr+6KX+wbwfwj/vqrbyeorXJlgMX1R9D2/xW8NSweYboqdwG0kZ+vXp71DN45sdTYLBfJbR98MCz/r0r53n0m6g5eLP61UKvGedwNEcrwE4/u56vY53QrQbvHY+pNP1OOLH2ecScdd2ciuX8UeLtS8TavJ4Y8MztZQw4Gpakhy0QP/LKM/3z3Pb8K8IOsX1lCWgupUKj5cMeDVzw74k1HRY/JtWY72Lv8xy7nqT6n3rhrZRCFRqEtErsnnb3R9F+E9K0Tw9pwstHhSBOsjscvK395m6sT/8AqwKo/FfVBp3w/wBTMR3T3sf2KBR1d5flwPfBJ/CuFN54n1jSC0EQiDA87+a5XxCfErPo1pcb4kguIo4ZpOVNxICFbnrsAJHoTXkVoQpr3ZJsrlk+h7KviPw74M0Sw0zVNXt7d7O2ig8vdudtqhc7Vy3OPSobL4q+CrydYodbiXP8UsbxD83AH61yVloei+HIBK8SzXJ+Z7qcb5ZGPUljkjPoKo6xr1peRPA9jFOh4xKgYfqK82WLjHQ9Cjl1SqrnVfC+/hgufFtruV8a1PdIUIIMcgUqR65Are8Tf2XrumSWGqab9ttn/hbgqezA9Qfcc14X4fupdB8R3MGmhooL6MN5YJIUgnHPXjJx9a6dNe1FP+Wx/OpqYh3VjsoZQ6kW76p2Oo8GeK9W8K6jF4X1wPe2k+Rpd3NJ8+B/yxdtvzMOx49PQDc+IHjbUNN02LT9Mto49Z1R/s9od+4R/wB+U8dFHPscdRXlni3XJb7Qn+0usc1syz28wOCkin5SPc9Pxqxp/jAa14xg1a6hA+y6asaRjosjnLMPw+X6VpGo2rnJUwEoVPZdT07wlYad4W0hbKzV5JnPmT3DnLzy/wATsepJPT0Fay6x/wBMf1zXGQ+KbFk+YMD9KfNrFheW08LXDxrJGYyU4YZHUHsfQ1KqTZby+cd0cy3jvz/iLqGp6bYvqV2kH9m6ZbBwF2ht0srN0A3cA9xxWwb34gX372XX7DSw3Pk2tkJwPqZDnNcx4cXSvDfizUbMN5UVzDCLKST+JAvzL9S3OO55rs11C2PSRf5VbnLoc6wz6o5nxrqXjFvCWo2OsfYdZspocvNFEYZ4tpDBiBwVyMkDmvQvCnig6r4Y02+RQTLboWOf4wMMPwYEVy+r+IdN02yknvJ0CBThBy0h/ugd81W+Gka6P4Qtbe9lZJHLy+Uxz5YZjhfy5+pND53HzHHDNy0O/vb1L62mtri2ilgmUpLHIMq4PBBHpXKfD7VL3w9rF54NuZmktYk+1aY8hy3klsGPJ67T09s9sVoNqtkqvI86Ii8lmOMV5+fFP9qfEfRdTt4hHptvJNbRzHhrjKHc2P7owMe/5CYqo0+YJ0eR7HR6tLJ448bS21y5k0PQJAPLPK3F0Rzu9Qg4x6+xrrHdjxuwPauH+F99ajwpFNPcIt3ezT3UwPdi5BP5AV1S6lZnpOpqZU5y2NadBtXSKni3XE8P6Bc37YMwGyBOpeU8KAO/PJ9ga4HwWdd1HQYrXSLsaVp0bsZb7YHmvJifnKZ6KDwG68fUDutaTR9XtvIvGicoS0bMM+W+CAw9xmuU8Ga/Z6Xp0Wh6tKlneWRMfz8LKMnaynof51oqclG3UznRmpLm0Ln/AAiDfefxN4g83/np9sI5+mOntWLrQ1nw3ruh6lqupfb9OtLkxCeRAssKyLtIbH3hgZB65H0rsn1rTo1LS3KBR1Y9K5TxVrlp4mVdC0x/OhllRrm5UfLFGrBuD3JxxihU6nVBKnp7u56YvK/Xis/xBpNtrulT6ddr8ky8MOqMPusPcHmoz4h0xVAE/HuKyvEHjmw02z/0VGur1/lhiHG5vU+gHc1CwtRe8aSoyS1LvgjxIx8H3k2uSf6VojS2962MlvLHDe5Ixz3Oao+B7Ge+ebxTrCZ1HUxmFTyLe3/gVfTI5Pr9c15x9vuIdM8U2d5dia51KeyMkiDC5YlnA9hwvuK9Rj8V6VFGIoSRHH8oAHTHGK0+qyd+VbkU6cp/I6A9a89+L+twQw2uhtudJpFuLtY+WMSsMKPd2wB6Y5rov+Ev07/pp+Vcn43vtP1GOPUdOtAdQt7qG5bj5pkjJwpP4/8Ajv0rSngakXdoqdCfLsaMem+JNbjWXV9Wm0iFh8lnpxCNGO2ZOTn1A4p//CI3UGH0/wAU65FMOhmuPNT8VIANR2fj7S7uNWiVgx6oeGB9KLnx1Y2+5mX/AL7YCq+q1HrHYn2atch8C3F/p3jTWdN1tomur2NLqKSNcJLt+UsB2J6keoPavQa8ntPEiX/i6LX3tisVnbtBCCMMzNnLfQAkCul/4T5P+fY/mKby6rPWxpTpSauWPH1pLaQ2/ifTBjUdIPmsBx5sGfnjPtjJ9ucda6281+xs/DT67NIBYi3FwG7upAIA9zkAe5ryrxV47m1Wxn0rTY/L81CLq467YyPmVf8AaI49v1Gf/wAJGt14X8LaDcRuYIZBLOD/ABrGSVX6HP6VP1CTsmYO/M+X+nsdx4V0u61S7/4SjxIu6/uBm1tzytnF/CoB/ixyT1/Wus71ykfjyyPJhdfpirCeNtLk6l0/4DTlltd62NlRaMfx9q1kvibSLS+uVitNNb+0rpjzgrxEoA6sWJ4645qyPFXiLUBv0Pw4UtmPyzX0wjLD18sZIH41yRj0wfEGC8vrv7ZHctJcB3Tavmg4jXGSMKvT3r0aO7glA8uVSfas5YacPda2OflbbuYN14j1+3tJo9c8N+baSIySzWMwk2qRgnYcE8e9WvhReLe+BrAb1LW5eFsdiGOP/HSDWyCvqK5v4YxxjUPEk9iSdMlux5HGFLgHzCvbGSAMdgKwlFqLurAlZo7S4t4rmF4biNJI3BVlYZDA9QR3rmvC0snhPxKvhuWV30zUA8uls7EmFhy8WT2xyP6k11Qrzr4reIYLaewgsUabUNOuorx5F5W3UHADH/aLAY9PwrKnd6Fy93U9aozRRWLLCnLI8f3TTaKXMw0LaajOq43Ux764brK1V6Snzy7i5Y9if7VL/wA9OnNL9un/AL5qCilzS7i5I9hzTO3JPNIWfuaSlpXfcpJCAkd6UOwpMUlO4WHlietNoo4ouOwUlLSUhhRRRTsIWiiijkkK6Eoooo5WAUUUUcpQtFFFAhKKKKAFooopDCkpaSmIejtGRtNbGmaj5n7uU/N2NYtA46VUKjg7oicFNWZ19LWRpd+GAik69jWtXpQmpq6OCUXF2FooorQkKKKKACiiigAooooAKKKKACiiigAooooAKKKKACiiigAooooAKKKjmljjXMrqg9ScUASUlUpNVs1OBOjn0Rs/yqpPrOM+Qmfc/wCFRKpFFKEnsjY6UxpEX7xA/Gufk1S4cff2+wFV3nkc5JrCWIXQ1jRl1N241OKLIX5jWNfXlxdfL5zRx+icfr1qAtupK55V5PY2jSSKy6faq+5oRI5/jbk/rUsksNumZJEjUfQVn+Ib29s7bOn2/nStwBjPNcXceGvEevOn9q3jW0foMD+td2Ho0n79eWgp3WkUb+rfEDRdPBHnec4OMKc1yGofFS6m3x6baMB/e210Nh8MtGttr3TvcMPU966Kz8NaPaY8mxTg5yea9FY7BUNKcLvzJdGrvLQ8X1jxP4nuIy9zJPBHJx93aMVk2elarrCvNGskyjq7dP1r1P4xrFHocccUKB2OBtXkcj+dUrEjRvB1vbIMXFwSW45xjFezis5WHwinSilJ7FYXB+3rWlscho/hGS4uPLZQ7n06LXoGjfDXT4Akt+gdj/B7VueDNHWy09JpE/fSAE57V0FfHTzDEV3zTmz0a7hF8lNaGPb+GNFt/wDV2EfHTIq2mj6cn3bKEf8AABVxvl+YtgVjap4jtbFThwz+gauWdeXWRNKjOb0RYk0LTWUk2sY/Csq80vQkzvVF9cDvWHca5q2oyMltGdjdCB2p9n4Y1G+YPdSOiHrXM6spbHpRpQpq85fcQ3y6JGf3YyfbNY8qB3zbxvs+ld3ZeDbCEZmJkYf7Va1vpVlAmI4F49ajklLW5r/aMKStBXPNbbSb64/1cDn6rVv/AIRvVP8Ang35V6UkSJ92NV+lO/GrVNrqc88zm9keXP4f1Mdbd6z7jw1Kc+dZE59q9go2juoraMqkGnGT0I+vNr3kj558WaAtlYRzNbPGgmRWJBxgmnaUtlFqTRNAy3MLfclGCR2Yeor2rxjoUXiDw5faaQivcREI/o4+ZT9NwGfauJ0/SrDxr4fia4U2OuWB8iWVOJYZV4OR3U9ce/XNdir1akHeT13OT28VUUuVdCS08Vy28Ij8pdo7CqvibV4de0k2zh4Z45FnglXrFIvRv6fjUIlj0aRLLxnaNb7jti1KAE283pvxyrfp9BXQp4W0y8tlms7nzYX5R43DKR7EcGuKUa0XdHXHEYaWkonm1zq2pOc6tbTSsv8Ay0hG9T+HaoW1KeT5bKwuWZuhkTYv516LN4Mx/qJ2PtxVK48LX8fRQ30rO+t3DX5nVGvBxsp2Xor/AHnOaJ4evnla5uSrXMgC/KeFHXb/AImte+0mexsWu7l0jgQZd3IwP89qy9T1B9Luvsqs812eFhg+ZifcDP61B5Wo39xHPr3zLEd8Vm3Man1fsT+n8quN/jqaf10E6zt7Og/68yhd2t1qdhNqt5DJDp8MTPbxkYMhxw7e3p/nNSysZIJreAySwG9s0dJBkNuHOB+HX2rqdd119ekh0JwogZ0kvGj/AIYlIOz2JOP/ANVdR4pstP8AEWjxnTHhtdSs2EtqegJH8B9iOMfTtXUq0VZPqcfJNt1LXS6/mef2WpyW84stXAjnPCS/wyj2PY+1a4PHBrc0Sz8P+L9Nkgu7YxXkPy3Vo5IaFhwSO+PQj+dULzwVrGi5k0lhrFgOfss7eXMg9Ffofx/AVopLqbU8e4K0ldfj8zJv7SG9jEdygdccZ6g+oPWqP9iFRti1C9WP+55mcfTits6joNudmtW+p6RJ0Iurclc/7LKDke9STar4LRONeLeyQyE/+g1smOeLw9TVoxbXR7eKcTSGS4lXo0z7yP6VdnmjgjaSaby0Xrk4FTATanmLwzo+oXWeVuLpRBCPfLct9Bg1o2nw3ubnbc65ercTDlYohiJD7Z+99TV+1jHcX1qmlalE5Ei512Ur+8i00HjIIaX/AAH+fpJDEs/iC3ijBWOwjOQOgLD7v9a6PxHYLpdxDpunu19q1ydsFpHjI/22/uqOvP8ALJG3onw3n0+y/fXSvdSHzJ2GMs5649h2qnWgkrmMalJtJ666s8ztbDeJbSORoLzTpT5Tj+6TkZHfNaFjqrGUWuoD7Pcj3+WT3H+FdX4n+HuqWoGr6QRc3VuuJYBwZ4+4H+0Oo9fyFVNL8PWHivTDNBciRQcPFIAJIX7gjOVP860jWgtUSq0YNpPVfc1/mUCx9TUF1a292u24iDjtkcj6HqK0ZvAniLTos6ZeQ30S9IJ/lYD0DdD+OBVOSHVrbi+8O6sjjqbWNbgfmCK2WJpvc2+u05K01+pnLoOlq/FsD7F2P9auxQRwrshjSNR2VcU4Q6rdfLY+HdXkf/p5iWAD8STirUPgfxLqC/6fLDp8Z/5ZQsJJD9W6D8KpYqjHoT9bpR1px19DGvNRSN/s9mn2m5boidF9yewplpZraI93fSLJMylmdugUfwgdh/OuoTwUukWskjTQW8CLuaRyBx6s2azdF8L33jKYvbq8eiRHHnSDabhv9nPO0ev9ej+swWr+XYydaN7y1fTsjAis5J9AvLraRLcSfaAO+0HIH5D9aRUmx/aemEkT4eSHdwx7n8DXqqeAGVcGcKoGAqgcVyOteFZPB16sl4ZZNCuWwZ41ybRz/eA/hJ79vr1X1qkmrf0yJOEWuV/Pz7mPZX0N4hMbESL95G4YH6VPXSy/DrT9UgS5t71kdhuiuYGHzDscjgj/ADms6fwl4j0lstbW+tW46NDMIJse4OVP4VssyitGNYrldpK/mjCuNPs7hi89ujMerDKn9Kij0jT4/mW3T8ST/M1vq0Ufy3PhfxMJB/DFaiRfzBFSraahffLpXhO8jH/PXUZlgC++3kn8Kp5hSWtvyFKvRevLr6GNuSNMllRAOg4AFZUl5JqDmHT2wmcPcdh7D1Pv/wDrrvbD4bveYm8S3qzKORa2ilIR9WPJ/StDW7Lwx4asVe5j25+WG3i5klbsqqPf8PWolmil7vTy3Mvb82j0R5hfBLDTxaWy/vJ28pfVs8FjT9Rg+y3embW24V4Q2O5UBT+JNeoeDvBBurptd8S2oinlGLWxB4toz/ePdj39P0G14u8E6frGiT2trEsF3gSW8nPyyLyp+nY+xrGWZxTskQ5LVryt8jxe1vGjm+y36+XL/DJ0Vh/j7VdrtdCsdF8WaVLY6rpwh1O1/dXdvkq8TjjevseoI+nNZ1z4Y1Pw6522reIdLHTyjtu4R9Oj4/M+wrpp5tyrlkrijWa31RyV5axXCFHGR1HYqfUGqyRalbc2moNtHAyTkD612lsfBmpsUTUjYXGcNFefuWU+h3YGfoTSXfhWzVDLb6xasnb98n8811LG4er8asynKEjkWk1W5h8jUNSnlt24eJG2hh6E9x7V3Hh/xhDYWsNmbPyYIxtCovAH+etcTqE9rZTNCt1FcvnAEDCQn8qpSfbLr5WU2kZ67vvH/CtpU8JVpcsNWZvlXw7nqOpeN/7RcaV4YVZtRn4aeTiK3Xu7HufQevX0Ofrvh+203TdL8PWrme+1zUIzdXMgzJMqnc7n2HGB2+uSeItnGlxb4n8oLzuB5Y+/qa6DwZ4hePX01jV1MjCHybct/wAs1JyW/wB739K87E5XyRvT1fZEct9z3Clqpp19BqFqs9vIHUjsatV8zOnKLakixaKKKyKCikooAKWkpaajKWwrhRR+lU73VrCyX/SrmOP2LCuylgq1V2grkOaRbzRXHap8SNHs8iD9+3baT/hXMah8V7x8raWsar6tk17NDhzFVfiVjN1ktj1n9KikuII8+ZOgx/eYV4ZfeOddvd2bjywRj5QOlY8+r6hN9+7lP417VHhP/n4zJ1n0Pfp/EGk2/wDrL2IY64bNZ8/jfQYs4u1b6V4O8srffkZvxplelT4Zw0d2R7Vs9sm+JOiR9N7enFVJvilpg3FIXPpkV5B8tNauuOQ4OO4e0Z6x/wALWtOn2Zv++ajk+K0P8Nuef9npXlmflozWn9j4Lawe0Z6l/wALVh4/0Yg1L/wtW2/59mzXlOaM0f2NgtNA52evQ/FLTH/1sLr6fLVmP4laK/VnX8DXi+aMLWTyHBvYPaSPcoPH+gy9bnZ25BrRg8U6LNnbfxcerV894+lKrOv8RX8a56nDeHk9GV7Vn0hHqlhL/q7yBu/DirKSxyfcZW+hr5sju7hDlLh19Pmq7a+IdVtseVeMNpzzzXBV4Vi/hZSrn0TSZrw6x+IWuQcvMJR3yo/pW7Y/Fa5GBdW0Te4yK8irwxXjeUdkWqyZ6pR9K4iw+JelXDBZh5W4dWJ4Pp0rfs/E+j3IHl3sW49Qx6V5VXJsTTSbiWqqNmioobiGYfupUf8A3WqWvPqYWrTdpItTQqkg5Bwa0bLVHjwk3zL61m0VjGUoPQJRhJanVQzJMu5CCDUtctb3MkDZQ8D+GuhsrtLmMEH5u49K7qVZT0e5x1KTjqtizRRRXQYhRRRQAUUUUAFFFFABRRRQAUUUUAFFFFABRRRQA1mCruJwBWBe+KrK2m8mFHupM4xFgjj3q5rpf7MEXIU9SKwYoY4VAiUL9Frmq1uV2RtCnzFp9av51/dQJbKRjLks39KzvsQkk33UzzseTn1q1SVySrTl1OpUooAAgAAxjt6UtFJWV2aJBS5oxSUDFooooJA89ap6nYLfKFaV0I6EVcoqm7qzKTscjdW2r6XuaCUXKDoGB6Utj4xCSCK+tmibuS3+NdaQCORms7UNFsr9WEqKrMMZVeayjC0r3O11oyjZo4H4m3tvqt1pkMLAoTkgH/aFWdPgbWtZiQN+7gA6fWs/xb4XksdUhuIfmgjG7P411nw+s9lnLcsMlzgH8K7cZiPaxjTXQ2hGFGk5x3Z1SqEVUC7QOBVLU9UhsIS8rcgdN1Gr6gmn2bSO2MdPrXH6bY3PiO++03GRBngH0FcLk17sTGjQVnVqbD5dR1LX5zHZqYoSdoPPTvWppnhG2iIkvGMr9a6G1tobOFYoVAUDtUtNLuKpim/dhoiKG2ggULDGoFS80lLVnLdvcSiiigkKKKKACiiigArjvFHhm+h1Q+IvCjKmo7QlzascJeJ2B9GA6NXY0VUZOLuiXFNWOJ0bxRpWvh9NvI/sl99yfTrxMPnuMHhh9O3UCq1x4B0+KZrjRLy90adjk/YpSI2PuhyMewwK6rxB4a0fxDGE1axinK/dk+7In+64wR9M4rnD4H1jTuPD/iy+hi7Q30a3K/QMcED6VtGSezsZtNblX/hH/F8XyxeMlZf9vToyw/HPNK/g/Vb75dc8ValdR90t0W2U+xC5yKmOmfEGP5Uv/D84H8ckMqk/gvFPXQPHV0Ntz4i0yxU9TaWZkP8A4+RVX81/XyF8mW9L0XRPDNs7WdtBZxAfvJ3bkj3dj0+prAu9Vk8Uyvp/g20E4B2zanKhFvD64yPmb0A4+orat/hvpskqT+IL++16ZTkC7mPlIf8AZRcY+hyK662t4bWFYrSKOCFBhY0UKqj0AHArOTivNlxc1s7I4+x+HVjptkEt5ZJbhvmlnf70jnqT6ew7frWffeFr62JaImRfYGvRaD0rmnHnd2ehRxc6ceVbHiWq6PObpbqKSazv4z8tzGMH6MP4h7VPb+Mde0s7dStBdRpwZ7fnPuy9R79q9entLecZkjB4x0rKvPC1hcZIQIf9kVUZSirPVGrq0Zu9rPr5/I4a2+JthKNkxA9Q+R/MVdg8deH1O4vbRse6lM/41p3vw/tpvueW59JEB/nWbP8ADsAYS0tCfURDP8qXPHsyuWEtOZfdYdL8SfD0XCPPcy9ooIyxP0PA/Wqra54h8QsYNPWHQLNutxcnzLgj/ZToD9fwNOPhG9tVKw2yL6BcDNQvoWpL962Y/Q1LryXwx+81jg8PJe9P7tP1Oq8K6ToXh6JzaS+fdzcz3k775pT7k9B7Dj8ea6FdQtm6Sp/31XmB0y/TP+jSbe+DTPsl8m791Kq9xmsnVqSd2jZYDDr4ZHqgvLc9JV/Oua8QeEdO1S8Op6ZevpGqgf8AH1Bj95/vr0cfXB9640Q3XZJh+JpwN5H3mH501XqReiIll9J/aNv7d4w0UbNS0iDW4F/5ebGYJJj1MbdT/u8Uh8f2ERAvdL1iybuLi0YfyrGE9/n78uO2SaU3d+v/AC0l6+/WtfrT6xMnlcOlQ2f+Fg6U/wDx7WWqXTfwpBZsSfzxSjW/E+pZXRfDMtsrdJ9TkEQX6xjLH8DWOt/qH3Vkm9+TTxf6h2eXd360/rX90f8AZi/nN608ENfXEd54y1Q6s6cpaIvl20Z/3R976nr3BrskWNI1VAERQFCrwAB0AFeY/wBp6mOkkg/OnLrGpr/y1c/nWTxE5bof9nRirKSPUM0yRI7mKSKZFkjcEMrAEEHqCD1Fea/2/qS/xt+tSxeK9Qj6tR7ddjN5bfaRoXPga70md7jwTqf2AO29tPuAZLVz7d0/D9BUD+IfEWl4TXPCd4//AE301hcK3vtBBUfWki8Y3qfeVTVlPG0v8cX5VqsSvtK5Dyqa+Erf8LC0dT/pFvqUDf3JbOQH9KUeO7W4O3TdD1y/Y8DybJsfiSRgVpw+NID9+Nl/Cr9t4p0+frIA3uaf1in2MZ4CtHc58HxxrXyW1jaaBbn/AJbXTieXHqqDgH2atrw54J0/Rrk6hdSTapqrj5r27O5h7KOiD6c9s1qw6taSD5ZU/CpxewHpIv51TrK2mhl9Vmt0WKSoRdQn/lqPzoF3b/8APRfzqOdB7CfY5/xX4Sj1eePU9Oum0zWYBhLyMZEg/uSD+Jf5fpWL/wAJZfaCyweMtLltADgX9qpltpPfIyUz6EZ+ldvJqFon3pl/76qlca/pw+VpIyp4Ixkc1oq0UtRfVKj+FGIs/hnxMgy2manxwH2SMPwPI/SoT4D8LF939jWm72U4/LOKff6D4I1Zi11pdj5nUmIGIt9ShGagh+HHgycYit5gn9wXcuP/AEKqVeD0TZnLCVY6uJe8jw5oEZAXTdNXHLDy4s/U965DW9Q0rX5fs/hjTrvWLvoWtk2wqf8AakYYH8q7TT/h54RsWDQ6JbSMO85aX/0MkV0sEUVtEIoYY4o1+6iKAB9AOK6I4p0/gbM/ZyW+h4Xf+BdX09FudXCSt1EcWSq/pzWc4wMAYx2r6HeNJUMcyhkPYjNcJ4s8Di4Vp9NUB+SV6Zr6vJs0pu9OruzSOhw/h3xHd6JcqYm3RMfmQ16joHjGw1SNFZxHKTjBIrxy/srixnMdzGyketVldlOVbafavZqZbhcU3KJTsfRysHGVKkf7NOrwfTfFerWA/d3DsPQk81uQ/E3UIlAliDfjXhVeGal24GMpWPXKK8jn+KV8y/JbgfjWNqPj3Wb75VkEIIx8pPFOjwtVk/fdjCVWx7Pf6vY2CF7m5RcDONwrida+KFtAzJYWxlcdCTx+leW3N3cXTbrid5D7moc19JhuHsLhleo7sxdRs6fV/HusaicBlhX0Ga5ye4uLly1xIWJ9aWC2nuDiCJ5D6AVvaX4H1vUORbeUD3kOK7J4zAYRWTSsSk2c5x6/lRXpunfCknDX10uO6rXR6f8ADzRbPbvj84r13qOa8ivxTRp6U1c0VKTPEo4pHYBI3bPoKvW+h6lcH91aSt/wE/4V75baLptsMQWkS/8AABVtI0jxsRVx7V41bimrL4EWqD6nhdt4G1qdQVg2j/aB/StOH4Y6pIo3yonc/Ka9lJyc0ledPiHFS2ZoqKPKYfhVcH794B/wCrkHwoj/AOWt63/fNelUVzSzvFv7Q/ZRPPF+FVov3rxz+AqT/hVlh/z9P+Qrv8UVl/a2K35g9nE89b4U2X/P64P0FRr8KLdc/wCnt/3x2r0alqo5xil9oPZxPM5PhSNv7u++mUqnP8KrtW/c3iH6rXq9LVxzvFLqHs4njc/wx1ZeUlRv+Ams678B65Bu/cb9v90E5+nFe60ldcOIsRFpsToo+d7jw7qtucSWcv8A3wf8Koy2txEcSQure4r6Wxn7wWq8+n2dwCJraJ8+qiu+lxTVS95akOgfNhyDhlwaSvoK68JaNc532cfvgDmsO7+GWky5MZeI/wC7Xq0eKacviRDos8apysynIOK9Gv8A4VzLk2l4G9FNc7f+A9btAx8jzFX+61epSzrCVo3bJdOSMez1i/syDDcMMHIrotO+I2r2uPMCzJ/tZzXNXGl31scTWsike1VOn+zXU4YKvro2xWaPWdL+KNrLhby2MbdyG/xrqtP8U6TqAHlXCAnsSPy618+GlRnQ5QsD7V5lfh7D1U1Ddlqo0fTEckcgBV1dT6VYt53tpA6f/rr510/xNqlgQIbqQAdiTXVaV8UbyL5byDzAO4PWvn8TwzUp2dPUpVb6M+hLWdJ4Q6n6j0qavLfDXxL0uaQK8hiyOQ1eiaXqtpqcIe0mWT1APIrzK2Eq4d2qIwlG2qL9FFFc5AUUUUAFFFFABRRRQAUUUUAFFFFABRRRQBDPEs0ZjNc7e27wSFSOOx9a6c1BdW6XCFWHPY+lYVaXOr9TWlUcHrsctRVy9sZLdzgEp61Trz5RcXZnfGSkroKKKKkYUUUUAFFFFAC0lLSUAFFFFA1uc148l2acI84Lf4itLw3D9n0eJduCeawvHD+deWtv13EfzrqbZPLso19BWS3bPRqK1OMX1OS8W3D3upwWMZyCfmFdZptqljZRwxqAQBmuR0pPtfiyVm5EWcY+tdtRBXdyMXKyUFsFLRSVqcAUUUUAFFFFABRRRQAUUUUAFFFFABRRRQAUUUUAFFFFABRRRQAUUUUAFGaKKVguLRRRTHdibU/uCm+XH/zzT8hTqKVg559xn2aD/nlH+QpjWdu3WCI/gKmpaLIftJlf7Ba/8+8X/fIpGsLQ/wDLtF/3yKs0maLIftqncrDT7T/n2i/75FL/AGdZ/wDPvF/3yKsUUrIPbVO5W/s6z/59ov8Avmm/2VYf8+sX/fNXKSjlQe2qdyl/Y2n8/wCjRc+1RN4f01v+XWOtKijkQ/bT7mHL4T0184i2f7pqrL4Nsz9xmH4101FL2cTWOKqq2uxxc/geT/ljNn2Ld/yrLm8LanEeIt2PQ16RRk+tQ6UTeOPqrV6nlUml6nE//HvMPpmmeXqKZylwMfWvVyo7qDTDDEesSf8AfNT7HzOlZk7axPKQb/ri4/XigLf9SLjH4816qLaDvCn5Uv2eHoYU/Kl7C/Uf9p/3Tyk2l8/SGc+nBqWPRtSk+YWcjf8AAa9TEUQ6Iv5U4KedoFaLDXJeaz+zE8sbRNST71rKPoKi8y+sTyJoiPrXrG0/xqKrXGnW1wSJYgQfah4KothxzFv+JE4XTvFN3bnbOfMUd8c11+k69Z36LtkCyeh4rM1Xwhbyoz2rFJPTtXJXdjeaVLuIdcfxCs2qlJ2kbONDFR93Rnqg9RS1xfh3xSxK294y57Me9djFIsyB0OQa6KdSzvE8qth5UjM1rw/YaxE4uYF3noy8GvONf+H1/aOz2CNPH1GG5r12q99ew2MJkuHCIB3r38uxmJVVKGpyt2Pn280+8tGIubeWPHqCKpvXXeMfFI1ScxWkcflgnLAf1rkXIHWv0/DTmqfPW0MJIjIyKZWtpGg3+rXSR21u5DnGVHFel+G/hnZWkIk1TMshP3c4AH4V5mPz+hhfdjqzDkcjzXRfDOp6xIFtbV9p6uRgV6JoXwvs4USTVZDI/Uop4+ld7bwQ2kYjtoUjQDGAKkr4LGZ9isTJ2dkawpJbmfYaJpenxqlpZxLt74yfzrQXC8D5R7UUV4sqk6msmbqKQtFFFSAlFFFIoWiiigBKKKKAFpKWkoAWiiigBKKKKAFopKKAFopKKAFooopiCil7UlNTa2YMrXFhaXClZreJwfVBWHqHgbQ70k/ZVjY/3OK6Siuqlja1OSkpbEtJnmmqfC1Cpawm59GP/wBauU1LwLrdiT/oplQd15r3ekYBhggGvXw3EGIpt8zuZOkmfNd1Z3Ns22eB0I9Qagr6NvNF06+Ui5tY3zxnpXL6r8M9Luf+PV3hbtzkV9HhuJ4cn73cylSfQ8az+Brc8N+K9V8P30dxZ3TkIeY2OVdfQitXV/h1q9lue3Qzx56qAf5GuYu9OvLJylxbyRkdcg17SxmBxUFz2dzNwkj6f8GeKrLxTpvn2cn71eJIzwyH3Hv610VfKPgzxRd+GNVS5tmyhIEqHo698ivp3RNXttZ0+O8s5FkjdQflOcHGcV8fmmX/AFSpeGsHsQ0aVFA6UV5AgooooAKKKKACiiigAooooAKKKKACiiigCORA6lWGQawdTsjAxZB8proc1FcwiWIqRnNY1aamvM0pzcGcpRUk0ZiYo45BqOvNaPRCiiikAUUUUDSb2FopjOi/ecD/AIFTftUC/wDLVf8Avqlcr2cn0JKOlV2v7Rf+Wyf99VBdaraRK371ScetJyRrToTbWhyuqu134whjxkIV47etdtKf3RA9K4fQj9r8VPMTkZAFd1IMqfpUR1TOvEaTjHscj4QAbW71/Qn+ddjXG+Ev3ev3iN1JP867CnDY58U7zuFFFFaHKFFFFAgooooAKKWigBKKWigBKKWigBKKWigBKKKKACiiigAooooAKKKKYgooopDCiiii4BRRRQAUtJS0AJRRRQAUUUUALSUtJTEKTSCg0oFIaVwopKKQ+RhRRRQHK+oUUUUwCilooYjL8R6q2j6a9xGm9+g9BmuBuPHmpy52BU/OvT54454WilUMjDBB6ViXHhLSp+sCr9AK9zBYyhRhaauzaM4pHnU/ijVXO4z9abH4t1VPuzFsdOe3pXdP4B01vuuw/Co0+HunfN87flXrRzTCJaxG6kTmbT4g6jFjzUSRR9a3LbxfpusRCK9j8ljweRiodR+HQKk2U4z6GuO1fQL7SnIuovlHRx0rVQwOLXM9DWlJX906XWtGW2Hn2beZEe47flV3wz4ha3kW2uOUPANcLbapdQIY0lOxuozUp1MKgKj5q8OWQ1J117DWLPUnVg6Vp7nrmua/aaRYNPIwLEZVCeSfSvIvEviW71qQ7j5cfTA9KztRvp76QPcOzADABPSr2g+Gr3WXHkrtTOMmvtKOHwuUUeep8R4Li7tpGRBbyXDhIULMewGc13/hT4c+cI7rVHKqcMEC9Pbmuy8N+FLLQ7fBQSzsBuYit7PtxXzGZZ/VxD5KekTLl11ILGyttPhEVrEqKB1A61Mef60Gkr5qUnNtyepSVhaKSiswCiiimMKKKKACiiigAooooAKKKKACiiigAooooAKKKKACiiigAooooAKKKKYgooopDCiiigAooooAKKKKYharXmn2t6m25hVx71Ypa1hWnDZiaTOI1r4b6ZeNutXeBj6AELTvBcGs+B7toSn2zT5cbgucp7jtXa0lej/alaolCrrEzdJM6q2uEuIUljOVYAipq5vT702rbcfKeordtrhJ1BQ/UUlUjJ+6cs4OJYoooqzIKKKKACiiigAooooAKKKKACiiigAooooAo6jYrcrlRh/WufljeJykgwRXW1S1GxW5QkcP2965qtLm1W50UqvLpLY5yinTRNC+1xim1wWsdoVlXukS3Uxf7bNGD2STFatFIuMnHY59/DTtndf3Bz/tmmf8Imrf8vk//fw10lFTyo1VeSOZfwfEcZuZTj/bNMPgyEdZpTjtvNdTSUnBFRxM1JHA6VCNM8TiANwSOvWu9auJ8VRiz1+C6GRkqc/Q12dvIJYVYdGFRDS6OjEOUnGZx9r/AKH4vZegkz1+tdpXHeKlNrq9teKuPmwTXWWc4uLeOQNu3AGnB2diMTCTjGfQlooorU4Qooqlqupw6dbvJK44HA9TSbsVTpyqOyLjyIi5YgAd6otrWnhtv2iPP+9XGS6hq3iCcxWassDHBIXtWhB4IbZuuLpvMPas3J9EeisPSp6VHqddDNFMoaJwwPoakrhp9P1fRXElpK8sa/w7c8VoaT4sSYiO9VY36E9KfNZe8c7w6k3yanVUVDBcRzKGRwQfSnmWMfxAfjVKSZzulNO1h1FR/aIv+ei/nR9pi/vj86OZD9lPsSUtRfaYv+eg/Oj7RFz84/OjmQeyn2JaKg+0Qf3x+dL9og4+cc+9HMg9hPsS9aNtRfaYB/y1X86PtUB/5ap+dHMh+xn2JaKh+2W/QyJx70n2y2/56L/31RzIPYT7E9LVX7dbf89k/wC+qPt1rx++Xn/aFHOhewqdizS1TbU7JOs8Y/4EKT+17IdbiL/vqjmRSw9TsXaXFZra3Yj/AJeI+OvzU3+3NP8A+fhP++qXMh/V6nY0qKyn8Q6cv/LwmfrTP+El09f+W6n8aOdDWFqPobFLWF/wlen/APPVaj/4S/T/APnov+fwo50V9UqdjoaSuZfxlaj7vP8An6VUl8bKc+VDu/A0vaIpYKodjijjrmuEl8VajKv7q3/8dqD7T4gvThUdQeuEpc76Gv1OK+KSR3U19bRffmUfjWbc+JtPh6TKcehzXOw+GNWu23XczID64rStvBVqu03EruaV5dCuTDw3dxtx42tx/q1Zj7LVOTxhdt/qLdj3+7XRQeGNLi/5Y7vqauJplnH9y3QdqfLJ9RfWKEdonFnxFrcrfu7d8f7lH9q+IpPuxScf7Fd2tvCmNsaDHtTwiDoF/Kj2b7kvFw6RRwX9peJE/wCWMnr9z9KX+39eh/1ls+D6xV3mF/uj8qa8UZ+8in8KOR9xfW4/yo42HxjcRAfaLZvf5K0LbxhZykLITGT1yK25NOtJCRJAhB96yr7wtYXAJRCh9mpcsktC41aE5WkrXNS1v7a6TdDOjf8AAqt8Yrh7jw3fWB83T5XYemaSx8R3dnOIdRXbjgkrihz5fiJ+rRqX9mzucCkqrp9/Bexh4nBz796ufWtVK+pwzpuDsxM0ZozSUyLCSN5aGQtwK4HxnrS3rfZI8FR947a3/F+qfZLIxxuu5uK89hvreKd5ro7mHOPU114XDYjEz5KJ7WFpwo0/a1N+hHH4Zvrzc1rbkgDJ7ViXNtNaymOeNlZTjB7V0Vz4z1E/LaBIE6fKvOPxrAvbya8mMtw2X+lfo2VYarhI8tV3OGtVdSbdrIpfLv8Am6Z5rtvDXihbOOOGIoIweRgZriW53U0Fk6Nilm2Xxx8Vyy1Q6NaENGrnvmna1Z3sY2XC5PYnFaH418/WmsXNqwKP0rp9L8c3KMivIp9mr4/HZLVw6TirijCFZuzset0tchp3je3lAE6qPda27LXLK6ztmQexavFq0KlJpTVrmf1eTu1sjU5pKYk0b/ddT9DUgORwawas7GfI10EooopmbVgooooAKKWigBKKKKACiiimIKKKKQwooooAKKKKACiiigAooooAKKKKYgooopDCiiimIKKKKQwooooAKKKKACiiimJi1LbXDwOHU4x+tQ0U02tUKye509ndpcx5U8jqKs1yttO9vIHjOPauis7pLmPKnnuPSu+lVU1Z7nFVp8rutizRRRXQYhRRRQAUUUUAFFFFABRRRQAUUUUAFFFFAFLULIXMZIA3joa56WNonKPwRXW1S1CxW5QlQA471zVaPNqjopVeXR7HOUVJLC8LlXGDTK4GmtzsUriUtFJuC5LdBSKWrsLRWHdeI0TK28ErsOPu4rPkl12/4hi8le5JFS5WOmNDrJ2JvGkCS2hdWG9Pmqx4QvlvLDY3Lo2CKzR4W1C6+a9us56jJPFU0in8MaonzFoJOvp1rNL3rnXNxdNQi7s6XxNp327T32j51+YVj+EdZWMfYLn5ZVJC/hXVW0qXMIdPmRhXM+J/Dpcte6eu2VcHA4PFVKPVGEasmuSex1W7NFcJpvia5smEN/G5K8E4q1f+LhNHssYpGf1IxU85UsG2076M29f1yDTYj8waQ8ACuYsNPvfEt8Lq7G23zkD1AqfQ/DNzeXP2rVmzu52tzXaJHHbxJFEqoqDAAq0m9WVOpChHkpavuR2FpDp8Iht0wAOTU3U0ZA6tge9YuqeJbSw+RT5kp7CndROWNKpVZsTOqKWkKqO+a898Vzae0xNsB5mecVYddY8QTELmGAnu2OK29K8J2doA1wBM/vzWck56JHfRlTwju3dnFW19fxrsgd8VMh1efhd+TXpUVlbRf6u3jUf7oqVEQNwij6UlRfcJ5nq2onnMOi61K2eRmrY8OazjiYj2r0m1sZp8EfKp6VoJpEYA3uSe9dEMI5K5w1M0d9jyb/hGtZ/57Uq+GNZ7zV6+mnW69UzUotYP+eS/lW31LzMv7Vknojxz/hFtW/5780reE9Y7T9a9k+zRf881/Kn+Wv8AdWqWCXVi/tWqeL/8Ihq/eaj/AIRHVR96fivaPLX+6Kie1hf70Smj6kujBZrU6o8c/wCEO1LI/wBJWj/hDtRwP9JXrXrv9l239yj+y7X+5U/UV3H/AGpI8jHg3UCf+PgUp8E3ve5Ar1k6Tb9hihdItx1XNL6mH9qSPJx4HuD1vB+VOHgaUdbz9K9bGn2wH+pWkGnW3eIVX1Fdyf7Tnc8oHgb1um/75p48DR97kn8K9Pl0qBugAqH+xkHSTH4VDwjWg/7SnY86XwRb952p6+CLXvK9d82jHtItNbRpuzrU/VJLoL+0J9ziB4NsB1dqeng7Tx1LGuxbR5x0ZTSf2NP/ALP50/q8uwfX5PqcrH4X02PohNW4dF0+LpDk10Q0Wb+8tKdGlH8SZoWHkuhLxje8jGS1gj+5CoqUYA44q82kXK84B+hqF7OdPvRmj2TXQXtVL7RBRTmRh95SKZUcjQXQtFJRQIKWikpFBS0lLRYkKKKKEMa7bPvED61Q1PS7bUYcSKuT0IrmvGOmaxLe+daTF48dA2MVyy6nrVj96WdAPXNetSy6GJgnfXqdlO8LOLOhu9OvtBm+0Wbb4h1HtW7o3ie3uowk/wC7lHGDXE2fi+/iuQLpjNEeGB7/AKVpvLo2rBWglFtMf4WXHNTXyirSf7tXR0TtOV5nfRzxuMqwP0qnq+rwWEDOxyegFcUbfUoFJgvlZR/desnUp2QsbufzHHQZzWFDL8TWnycprHDUYy5m9CLxBqz3U8khPy5+UVgYadwAPmNPmZp5Mhc5PAr0DwF4V2INQ1KMc8xqa+xc6WU4dRWs2c+JrOTstjI0TwFeahGk9zJ5EZGcd8V09p8PNLiUCZ3c457V1wbOeML2FJXy9fNMTVlfmODmbOXbwDozbuH54rPuvhlp758i4eM+m2u4payjmWIi0+bYnU8q1L4Y3seWtJ0k9iMVyWqaDqOmuVubdgB/EK+gqimt4rlCk8SyKezDNerhs+qRl++1QldbHzilxLC3yuw9jV221yeIjKk+9ewav4G0bUAzC2SJz0ZB0NcdqfwuuFy1jMh44BzXr08wwWMfNVjawvbVIJpPcyLHxWyEbZnTb2rorDxrcjpIrj3NcZqPhHWbAnzrUuo7q2ayfJubeTJjkjI/2TSnlOBr3qQla5tHHNJKaPYbTxsCP30H5GtGDxbZTHDBlxXikd/eRjIZ+vcVdstUupZVUwu+TjivAxmTuhTc1JOx206+HqySkrXPcY9YspVysq5PvVqO5idQVdSK8s/s6+SMSGBwvtSCa8tzgPKntzXzHtJJ6o7XgqM9IyPV1kV/ukU6vLYta1GDpcPx61di8V30fLHeP8+1Uq66mcstf2WejKaK4iHxs4X97CfwxVqPxrbn76uD9Kr20TB5dVXQ6ylrn4PFthJ959v1FXItesJW+W4Xn3qlUiYSwlWO6NSkqqt/ayfcnQ/jU4mRujqfxquZGTozW6H0UB1I4NCsKd0RySFopaSgXKxKKKKZIUUUUAFFFFABRRRQAUUUUxBRRRSGFFFFABRRRQAUUUUAFFFFMQVYsrg20gYVBRQm07oTV1ZnVwSrNGHXoaf2rntNvWt3wx+U9a3oZllXcp4r0aVVTXmcFSm4PyJaKKK3MwooooAKKKKACiiigAooooAKKKKACiiigCvd2kVwuHHPY1zt3bPbybWH/wBeupqC6tkuY9rjnsfSsKtFTWm5tTq8rs9jl6Q/dxjNWr2ze2kOfunvVYV5souLszui76oijtoE5WFAfpUo46cUlFIpt9wqjrNhFf2rRSLk84PcGr9RXEqxxlnOAPWk0bUG01Y43SdSn0S6+yXpPkZwjmuygnjuIg8RVlNcJ4k1FNRmFvZxh2z98c02x1PUNCMaXEZMR55z0NZRnZ2Z6GIw6aUlo+x2s+mWVwxaa2Rm+lOt9Msbc5itYgf92sSHxjaSf6xWTFNu/GdnEuIPmb60+aJh9XrOyOnZlXJc7R78Vjar4lsLEECUSSDjA55rk5dU1nXJStsjKhPG0GtrRvByRss+oOZZOpX3p8zloi/ZUqCvUd32RRkvtZ16UrZK8MB+UNjH1rY0jwpb2pEl9meXHc5rfhgitoxHEgQD0FOqlC25zVMU5aU1ZDY0SJQsahFHYU6pobeScgIua0IdIY4MrYHpW8KUpbI4pVF1ZmxxNIwCKxJ9K17LS1QbpjkntV22tYoBhFH1qxXXToKOrOSpWctENSNUUBQAKdRS11IwCiiigAooooAKKKKACiiigAooooAKKKKACiiigAxRRRQAUUUUAFFFFACYpCoPUU6ilYCFreNvvRqfwqs+mWzfwAfSr1FJwT6DTa2Mp9HT+B8fWkGir3krXoqfZQ7Fe0n3Mc6MOz8VDLo8oH7sBvxreoqXRg+g/ayOVktJk+9E1RFHH8DV1rKD1ANMMMZ6oKzeHXQtVmjlMN6UhzXVG1hPWJaYbG3P/LMVH1XzL9v5HMAAjDDPvVa60uzvFKz26MPXbXWf2bbf3cfjUq2VuowI1rSNKcNIyGsTY8o1fwHby73ssoeoG7iuK1Xw9qOmOfMhcqO45/lX0W9lAy/6sVQutAtp1IIyD2PNevQx9WnDln71tjohjF9o+cjNMMjzZV9fmNRxW1xdylYonlY/U17pceA7FpN32VDznirNj4SgtSTBbRxn1NdEs3mo+5HUuWKjbRnnfg/wSwMd5qUeAOUjJ6+nFd/GAihFG1F4AFa0eiyHG9wAPSrEWjRD7zE14NeVbEy5pswddMxMH2NGD/drpEsLZOkdSfZYP+eYrNYZ9WZvEeRy2DRz6V05sbc9YxTDp1sesX6mhYVdWS676HObSafFbySHEaEmukjtIEGFiX8akWNU+6qj6CrWHj1IdaRhxaTcNy3y/U1IdGl/vKa26K09lFbEe0kznJtIlIP7kSD8DWRe+GLN8mfS1bPXEef5V3VJWkXKOibH7RnAxeEdNkXaNJXnrmIirdt4LskbKWES/gK7PFLRNynpJsFUa2MOPQkwvmKigcACm3HhewlXmFCfcVvUVl7CHYpV6qd0ziL3wTaMrYtQf92sW68E2fQK8bfU16iajeFJPvKD+FYywlNnXDMK0ep5DP4JYf6mbP1P/wBas+fwfqK/cAYfWvZW0y2PYj6GoJNHjb7jkfWsJYFdDrp5xVje54pN4c1OEktas3pjmqj6bexZL2si+vBr3QaKv8UmaVtDt2G1sn64/wAKxeAfQ6Fnbt7yPBwbmH/nuhx7inpqN4mNt1KuOxJr3B/DGnScPCp/CqNz4H0ubO2LBNQ8BUWzN451Sb96J5ImuagvS5f86sQeJ9QhP+tDfUV2t74Hso25jce46VmzeCbUn5JHFc7oVYnTHH4aa1juZEXjK7X7yA/8Bq1H41b/AJaR/kKWXwQf+Wdxz2zVSXwXfL9x1Yf7tLkqrQtVcHPoakfjWEnDow/4DVhPGFkTyWH4VzEnhfUUOBDn6A1Vl0TUIzg27/gpo5qq6F+ywcup3KeKtPbrOv41NF4h0+TpOlebtZXMf3oH/wC+TTGjdByjLS9pNboX1LDS+GR6murWLdJ4/wA6kW/tW+7Oh/GvJw7jozClE8o6SuPxo9tLqif7MpN6SPXFuIiOJUP404SxkcMteSrf3Sn5Z3H/AAKpF1W/U/LcvT+seQnlK6SPV96/3qTcOxH515autaiv/LyTUq+IdSX/AJbfpT+sozeUy6M9PorzVfE+or1kB/4DTl8Vahu5Zfyp/WIk/wBkVD0iivOv+Etv/Rfyp3/CW3/olH1iIv7JqI9Dpa88/wCEvvv7qUf8Jfff3Up+3iL+yap6GMUmRntXn6+MbwDlFNPTxlc55hH50e3iS8pqo76iuE/4TSf/AJ4j86kHjVv4oTiq9vEl5XWXQ7jFJzXI/wDCax/882FQan8RLWytt/kM7noK6cNH6zUVOO7Oatg6tKPM0drVi2u5bZgUY/7vavH7n4q3bZ8i2RR755rOufiXrMn3FjTPtX1NDIKjfxK55c22tUfRdlfxXIwDtb0NXK+Wf+E81/zFcXe0qeMLX0N4F19PEPh+C8B/egBZB6NgE1eOyupg4qUndM5ZRsdFRRmivKICiiigAooooAKKKKACiiigAooooAKKKKAIpYklUqyg5rB1KyNuwZQShrojTJYlmQq4yDWNWkprzNadRwZydFXr7T5YWLKuU7Yqgyb1K88150oSi7NHfGUZK99DK1bXrbTkO5tzgdBXKSSaj4km2QqYoF+91712aeHrNpDK9qruT1K5q7FbLAuyKFUX0C4rPlbO2OJhTj7m5k6J4fttKi+75kp6krWhc20F0myaJWH0q9FazSfcQ1ai0iZvvbV+taxot9DkliW3zN6nHT+ENOlkLAFc9hiprPwrptvyYi7D+8BXb2+kxpzJ8xq2tpAvSJPyrSOD6siWPnayZy1vaiP5YYQo9hVtbC4fkJXRhFX7qgU4e1dCw0UcssTJnPppNy3UqPrVqDRgrbpXz7CtU9aWtFRgjN1ZMZHEkagIMCnGlxQa2SWxluLRRRQAUUUUAFFFFABRRRQAUUUUAFFFFABRRRQAUUUUAFFFFABRRRQAUUUUAFFFFABRRRQAUUUUAFFFFABRRRQAUUUUAFFFFABijFFFABiiiigAooooAKKKKACiiigAooooAKKKKACiiigAooooAKKKKACiiigAooooAKKKKACiiigAooooAayhhggGoHs4H6xr+VWaSk0mNNrYqfYLcY+TGKcLK3GP3a/lVmilyrsPnl3IBawDpGv5VG1hbv1jX/vmrlJRyR7BzyXUzJtFtZP4cH/dFZ114bjKnEUb/Va6Sis3Qg+hrHEVI7M4W58PWgOJLUA/7oqjL4X09s7o9v5V6LIiuMMAfqKgNjbtndEv5VjLCQZ0Qx1WK1Z5vL4NsX+4Sv4CqsvgeJvuXDD8K9Q/s21/550o0+2HHlCs3gomqzOsndM8kl8DTD/V3QP1BqtJ4L1AdJEP517QLO3HSFfypRawDpEg/Cp+oR7m0c4rRPDH8KalH91Aw/Gq0mhajGfmgP4V7y1jbv1jUfSqsujwvnYSKyll3Y6Y55UveR4RJYXSt80L1CYJUPzRsK9wuNEdTlQr1mz6eicTQAf8BrCWAa1OuOeN7nj7I3dSKbjHU1602nWUn3oY2/4CKgk0LTn62qflWUsI0dEc6TR5ZRXpj+GdNk6RKKrP4Q089FA/z9azeFkbRziL3R55+FLiu6k8FWxP7uXH51Wl8EP/AMs51/WoeHkbrNKTSucaajkiSUbZFyK66XwRdD7kyE1AfBuor0MbfjVU41aUuaG5UsfQqJqWxxz6TbN0Uj6YqB9BgbozCuxfwlqqf8s0P0NQP4d1Rf8Al2z+Ir0IZjjKeib1MnLBztexxzeH/wDnnN+ldp8LNUm8L6k0VzLvtLjAcc8H1qtJouoR53Wr4H0qI6feDO63cYrolm+LnFQqao554XBVYtJ7n0JE6yRhkIII4qXmvNvhzr80LDTNREgGP3btzj2r0ocjiuulVVWPMj4/EUPYVHC9/MWiiitTnCiiigAooooAKKKKACiiigAooooAKKKKAGsoYYIzUP2ODdu8tc1YpKTinuO7RGIYx/APyo8iL+4v5VJRSsguxFVVHApaWiqEFFFFABRRRQAUUUUAFFFFABRRRQAUUUUAFFFFABRRRQAUUUUAFFFFABRRRQAUUUUAFFFFABRRRQAUUUUAFFFFABRRRQAUUUUAFFFFABRRRQAUUUUAFFFFABRRRQAUUUUAFFFFABRRRQAUUUUAFFFFABRRRQAUUUUAFFFFABRRRQAUUUUAFFFFABRRRQAUUUUAFFFFABRRRQAUUUUAFFFFABRRRQAUYoooAKKKKACiiigAooooAKZJGkgw6BvqM0+igDOk0eylzmLYT/cYimx6NbR4zvfHqa06Sk4pjTaKX9mW39w1DLpEDD5CVNadFS6cWPnktmczdWE1uSduV9RVbkda65lDDDDIrMvdKRwXg+V/7vY1yzw/Y3jXf2jDNLRIDG+xxsf+63BormlTa3OpVE9hKKKKmw+ZgQD1ApDGh6op/CnUUi+aS6kYgiVg3lISDkcVp2mpvFhW+ZR/KqFWLOze4YbVO3ua0pcyfumdRpr3zfs7tLpNyZ/GiltbdII9q/jRXpx294852uWKKKKokKKKKACiiigAooooAKKKKACiiigAooooAKKKKACiiigAooooAKKKKACiiigAooooAKKKKACiiigAooooAKKKKACiiigAooooAKKKKACiiigAooooAKKKKACiiigAooooAKKKKACiiigAooooAKKKKACiiigAooooAKKKKACiiigAooooAKKKKACiiigAooooAKKKKACiiigAooooAKKKKACiiigAooooAKKKKACiiigAooooAKKKKACiiigAooooAKKKKACiiigAooooAKKKKACiiigAooooAKKKKACiiigAooooAq39hDex7ZRg9mHUVx+pC70Nv9MQz2zH5J16j2YGu5pjosgKuoIPUHpUuKkrMabWqOQhljnjEkTB1YZBFOqTVPDUsErXOiMsWDuNv0V/UDsPaoIHd8rLEYpU4ZTXDVpOLutjsp1U9HuSUUlPjRnbC81zpG6FhQySqo7nFdPbRrDEiKOAKo6fpwhxJKcuecelaf0r0KFPkWpw1Z8z0FoooroMQooooAKKKKACiiigAooooAKKKKACiiigAooooAKKKKACiiigAooooAKKKKACiiigAooooAKKKKACiiigAooooAKKKKACiiigAooooAKKKKACiiigAooooAKKKKACiiigAooooAKKKKACiiigAooooAKKKKACiiigAooooAKKKKACiiigAooooAKKKKACiiigAooooAKKKKACiiigAooooAKKKKACiiigAooooAKKKKACiiigAooooAKKKKACiiigAooooAKKKKACiiigAooooAKKKKACiiigAooooAKKKKACiiigAooooAKKKKACoJYIZTl41J9cc1PSUmrjOe1GyEVwFi/j6CtHTbBYBukGXP6VbeBHmSVh8yZx+NTVkqUU7lupJqwUUUVsZhRRRQAUUUUAFFFFABRRRQAUUUUAFFFFABRRRQAUUUUAFFFFABRRRQAUUUUAFFFFABRRRQAUUUUAFFFFABRRRQAUUUUAFFFFABRRRQAUUUUAFFFFABRRRQAUUUUAFFFFABRRRQAUUUUAFFFFABRRRQAUUUUAFFFFABRRRQAUUUUAFFFFABRRRQAUUUUAFFFFABRRRQAUUUUAFFFFABRRRQAUUUUAFFFFABRRRQAUUUUAFFFFABRRRQAUUUUAFFFFABRRRQAUUUUAFFFFABRRRQAUUUUAFFFFABRRRQAUUUUAFFFFABRRRQAUUUUAFFFFABRRRQAUUUUAFFFFABRRRQAUUUUAFFFFABRRRQAUUUUAFFFFABRRRQAUUUUAFFFFABRRRQAUUUUAFFFFABRRRQAUUUUAFFFFABRRRQAUUUUAFFFFABRRRQAUUUUAFFFFABRRRQAUUUUAFFFFABRRRQAUUUUAFFFFABRRRQAUUUUAFFFFABRRRQAUUUUAFFFFABRRRQAUUUUAFFFFABRRRQAUUUUAFFFFABRRRQAUUUUAFFFFABRRRQAUUUUAFFFFABRRRQAUUUUAFFFFABRRRQAUUUUAFFFFABRRRQAUUUUAFFFFABRRRQAUUUUAFFFFABRRRQAUUUUAFFFFABRRRQAUUUUAFFFFABRRRQAUUUUAFFFFABRRRQAUUUUAFFFFABRRRQAUUUUAFFFFABRRRQAUUUUAFFFFABRRRQAUUUUAFFFFABRRRQAUUUUAFFFFABRRRQAUUUUAFFFFABRRRQAUUUUAFFFFABRRRQAUUUUAFFFFABRRRQAUUUUAFFFFABRRRQAUUUUAFFFFABRRRQAUUUUAFFFFABRRRQAUUUUAFFFFABRRRQAUUUUAFFFFABRRRQAUUUUAFFFFABRRRQAUUUUAFFFFABRRRQAUUUUAFFFFABRRRQAUUUUAFFFFABRRRQAUUUUAFFFFABRRRQAUUUUAFFFFABRRRQAUUUUAFFFFABRRRQAUUUUAFFFFABRRRQAUUUUAFFFFABRRRQAUUUUAFFFFABRRRQAUUUUAFFFFABRRRQAUUUUAFFFFABRRRQAUUUUAFFFFABRRRQAUUUUAFFFFABRRRQAUUUUAFFFFABRRRQAUUUUAFFFFABRRRQAUUUUAFFFFABRRRQAUUUUAFFFFABRRRQAUUUUAFFFFABRRRQAUUUUAFFFFABRRRQAUUUUAFFFFABRRRQAUUUUAFFFFABRRRQAUUUUAFFFFABRRRQAUUUUAFFFFABRRRQAUUUUAFFFFABRRRQAUUUUAFFFFABRRRQAUUUUAFFFFABRRRQAUUUUAFFFFABRRRQAUUUUAFFFFABRRRQAUUUUAFFFFABRRRQAUUUUAFFFFABRRRQAUUUUAFFFFABRRRQAUUUUAFFFFABRRRQAUUUUAFFFFABRRRQAUUUUAFFFFABRRRQAUUUUAFFFFABRRRQAUUUUAFFFFABRRRQAUUUUAFFFFABRRRQAUUUUAFFFFABRRRQAUUUUAFFFFABRRRQAUUUUAFFFFABRRRQAUUUUAFFFFABRRRQAUUUUAFFFFABRRRQAUUUUAFFFFABRRRQAUUUUAFFFFABRRRQAUUUUAFFFFABRRRQAUUUUAFFFFABRRRQAUUUUAFFFFABRRRQAUUUUAFFFFABRRRQAUUUUAFFFFABRRRQAUUUUAFFFFABRRRQAUUUUAFFFFABRRRQAUUUUAFFFFABRRRQAUUUUAFFFFABRRRQAUUUUAFFFFABRRRQAUUUUAFFFFABRRRQAUUUUAFFFFABRRRQAUUUUAFFFFABRRRQAUUUUAFFFFABRRRQAUUUUAFFFFABRRRQAUUUUAFFFFABRRRQAUUUUAFFFFABRRRQAUUUUAFFFFABRRRQAUUUUAFFFFABRRRQAUUUUAFFFFABRRRQAUUUUAFFFFABRRRQAUUUUAFFFFABRRRQAUUUUAFFFFABRRRQAUUUUAFFFFABRRRQAUUUUAFFFFABRRRQAUUUUAFFFFABRRRQAUUUUAFFFFABRRRQAUUUUAFFFFABRRRQAUUUUAFFFFABRRRQAUUUUAFFFFABRRRQAUUUUAFFFFABRRRQAUUUUAFFFFABRRRQAUUUUAFFFFABRRRQAUUUUAFFFFABRRRQAUUUUAFFFFABRRRQAUUUUAFFFFABRRRQAUUUUAFFFFABRRRQAUUUUAFFFFABRRRQAUUUUAFFFFABRRRQAUUUUAFFFFABRRRQAUUUUAFFFFABRRRQAUUUUAFFFFABRRRQAUUUUAFFFFABRRRQAUUUUAFFFFABRRRQAUUUUAFFFFABRRRQAUUUUAFFFFABRRRQAUUUUAFFFFABRRRQAUUUUAFFFFABRRRQAUUUUAFFFFABRRRQAUUUUAFFFFABRRRQAUUUUAFFFFABRRRQAUUUUAFFFFABRRRQAUUUUAFFFFABRRRQAUUUUAFFFFABRRRQAUUUUAFFFFABRRRQAUUUUAFFFFABRRRQAUUUUAFFFFABRRRQAUUUUAFFFFABRRRQAUUUUAFFFFABRRRQAUUUUAFFFFABRRRQAUUUUAFFFFABRRRQAUUUUAFFFFABRRRQAUUUUAFFFFABRRRQAUUUUAFFFFABRRRQAUUUUAFFFFABRRRQAUUUUAFFFFABRRRQAUUUUAFFFFABRRRQAUUUUAFFFFABRRRQAUUUUAFFFFABRRRQAUUUUAFFFFABRRRQAUUUUAFFFFABRRRQAUUUUAFFFFABRRRQAUUUUAFFFFABRRRQAUUUUAFFFFABRRRQAUUUUAFFFFABRRRQAUUUUAFFFFABRRRQAUUUUAFFFFABRRRQAUUUUAFFFFABRRRQAUUUUAFFFFABRRRQAUUUUAFFFFABRRRQAUUUUAFFFFABRRRQAUUUUAFFFFABRRRQAUUUUAFFFFABRRRQAUUUUAFFFFABRRRQAUUUUAFFFFABRRRQAUUUUAFFFFABRRRQAUUUUAFFFFABRRRQAUUUUAFFFFABRRRQAUUUUAFFFFABRRRQAUUUUAFFFFABRRRQAUUUUAFFFFABRRRQAUUUUAFFFFABRRRQAUUUUAFFFFABRRRQAUUUUAFFFFABRRRQAUUUUAFFFFABRRRQAUUUUAFFFFABRRRQAUUUUAFFFFABRRRQAUUUUAFFFFABRRRQAUUUUAFFFFABRRRQAUUUUAFFFFABRRRQAUUUUAFFFFABRRRQAUUUUAFFFFABRRRQAUUUUAFFFFABRRRQAUUUUAFFFFABRRRQAUUUUAFFFFABRRRQAUUUUAFFFFABRRRQAUUUUAFFFFABRRRQAUUUUAFFFFABRRRQAUUUUAFFFFABRRRQAUUUUAFFFFABRRRQAUUUUAFFFFABRRRQAUUUUAFFFFABRRRQAUUUUAFFFFABRRRQAUUUUAFFFFABRRRQAUUUUAFFFFABRRRQAUUUUAFFFFABRRRQAUUUUAFFFFABRRRQAUUUUAFFFFABRRRQAUUUUAFFFFABRRRQAUUUUAFFFFABRRRQAUUUUAFFFFABRRRQAUUUUAFFFFABRRRQAUUUUAFFFFABRRRQAUUUUAFFFFABRRRQAUUUUAFFFFABRRRQAUUUUAFFFFABRRRQAUUUUAFFFFABRRRQAUUUUAFFFFABRRRQAUUUUAFFFFABRRRQAUUUUAFFFFABRRRQAUUUUAFFFFABRRRQAUUUUAFFFFABRRRQAUUUUAFFFFABRRRQAUUUUAFFFFABRRRQAUUUUAFFFFABRRRQAUUUUAFFFFABRRRQAUUUUAFFFFABRRRQAUUUUAFFFFABRRRQAUUUUAFFFFABRRRQAUUUUAFFFFABRRRQAUUUUAFFFFABRRRQAUUUUAFFFFABRRRQAUUUUAFFFFABRRRQAUUUUAFFFFABRRRQAUUUUAFFFFABRRRQAUUUUAFFFFABRRRQAUUUUAFFFFABRRRQAUUUUAFFFFABRRRQAUUUUAFFFFABRRRQAUUUUAFFFFABRRRQAUUUUAFFFFABRRRQAUUUUAFFFFABRRRQAUUUUAFFFFABRRRQAUUUUAFFFFABRRRQAUUUUAFFFFABRRRQAUUUUAFFFFABRRRQAUUUUAFFFFABRRRQAUUUUAFFFFABRRRQAUUUUAFFFFABRRRQAUUUUAFFFFABRRRQAUUUUAFFFFABRRRQAUUUUAFFFFABRRRQAUUUUAFFFFABRRRQAUUUUAFFFFABRRRQAUUUUAFFFFABRRRQAUUUUAFFFFABRRRQAUUUUAFFFFABRRRQAUUUUAFFFFABRRRQAUUUUAFFFFABRRRQAUUUUAFFFFABRRRQAUUUUAFFFFABRRRQAUUUUAFFFFABRRRQAUUUUAFFFFABRRRQAUUUUAFFFFABRRRQAUUUUAFFFFABRRRQAUUUUAFFFFABRRRQAUUUUAFFFFABRRRQAUUUUAFFFFABRRRQAUUUUAFFFFABRRRQAUUUUAFFFFABRRRQAUUUUAFFFFABRRRQAUUUUAFFFFABRRRQAUUUUAFFFFABRRRQAUUUUAFFFFABRRRQAUUUUAFFFFABRRRQAUUUUAFFFFABRRRQAUUUUAFFFFABRRRQAUUUUAFFFFABRRRQAUUUUAFFFFABRRRQAUUUUAFFFFABRRRQAUUUUAFFFFABRRRQAUUUUAFFFFABRRRQAUUUUAFFFFABRRRQAUUUUAFFFFABRRRQAUUUUAFFFFABRRRQAUUUUAFFFFABRRRQAUUUUAFFFFABRRRQAUUUUAFFFFABRRRQAUUUUAFFFFABRRRQAUUUUAFFFFABRRRQAUUUUAFFFFABRRRQAUUUUAFFFFABRRRQAUUUUAFFFFABRRRQAUUUUAFFFFABRRRQAUUUUAFFFFABRRRQAUUUUAFFFFABRRRQAUUUUAFFFFABRRRQAUUUUAFFFFABRRRQAUUUUAFFFFABRRRQAUUUUAFFFFABRRRQAUUUUAFFFFABRRRQAUUUUAFFFFABRRRQAUUUUAFFFFABRRRQAUUUUAFFFFABRRRQAUUUUAFFFFABRRRQAUUUUAFFFFABRRRQAUUUUAFFFFABRRRQAUUUUAFFFFABRRRQAUUUUAFFFFABRRRQAUUUUAFFFFABRRRQAUUUUAFFFFABRRRQAUUUUAFFFFABRRRQAUUUUAFFFFABRRRQAUUUUAFFFFABRRRQAUUUUAFFFFABRRRQAUUUUAFFFFABRRRQAUUUUAFFFFABRRRQAUUUUAFFFFABRRRQAUUUUAFFFFABRRRQAUUUUAFFFFABRRRQAUUUUAFFFFABRRRQAUUUUAFFFFABRRRQAUUUUAFFFFABRRRQAUUUUAFFFFABRRRQAUUUUAFFFFABRRRQAUUUUAFFFFABRRRQAUUUUAFFFFABRRRQAUUUUAFFFFABRRRQAUUUUAFFFFABRRRQAUUUUAFFFFABRRRQAUUUUAFFFFABRRRQAUUUUAFFFFABRRRQAUUUUAFFFFABRRRQAUUUUAFFFFABRRRQAUUUUAFFFFABRRRQAUUUUAFFFFABRRRQAUUUUAFFFFABRRRQAUUUUAFFFFABRRRQAUUUUAFFFFABRRRQAUUUUAFFFFABRRRQAUUUUAFFFFABRRRQAUUUUAFFFFABRRRQAUUUUAFFFFABRRRQAUUUUAFFFFABRRRQAUUUUAFFFFABRRRQAUUUUAFFFFABRRRQAUUUUAFFFFABRRRQAUUUUAFFFFABRRRQAUUUUAFFFFABRRRQAUUUUAFFFFABRRRQAUUUUAFFFFABRRRQAUUUUAFFFFABRRRQAUUUUAFFFFABRRRQAUUUUAFFFFABRRRQAUUUUAFFFFABRRRQAUUUUAFFFFABRRRQAUUUUAFFFFABRRRQAUUUUAFFFFABRRRQAUUUUAFFFFABRRRQAUUUUAFFFFABRRRQAUUUUAFFFFABRRRQAUUUUAFFFFABRRRQAUUUUAFFFFABRRRQAUUUUAFFFFABRRRQAUUUUAFFFFABRRRQAUUUUAFFFFABRRRQAUUUUAFFFFABRRRQAUUUUAFFFFABRRRQAUUUUAFFFFABRRRQAUUUUAFFFFABRRRQAUUUUAFFFFABRRRQAUUUUAFFFFABRRRQAUUUUAFFFFABRRRQAUUUUAFFFFABRRRQAUUUUAFFFFABRRRQAUUUUAFFFFABRRRQAUUUUAFFFFABRRRQAUUUUAFFFFABRRRQAUUUUAFFFFABRRRQAUUUUAFFFFABRRRQAUUUUAFFFFABRRRQAUUUUAFFFFABRRRQAUUUUAFFFFABRRRQAUUUUAFFFFABRRRQAUUUUAFFFFABRRRQAUUUUAFFFFABRRRQAUUUUAFFFFABRRRQAUUUUAFFFFABRRRQAUUUUAFFFFABRRRQAUUUUAFFFFABRRRQAUUUUAFFFFABRRRQAUUUUAFFFFABRRRQAUUUUAFFFFABRRRQAUUUUAFFFFABRRRQAUUUUAFFFFABRRRQAUUUUAFFFFABRRRQAUUUUAFFFFABRRRQAUUUUAFFFFABRRRQAUUUUAFFFFABRRRQAUUUUAFFFFABRRRQAUUUUAFFFFABRRRQAUUUUAFFFFABRRRQAUUUUAFFFFABRRRQAUUUUAFFFFABRRRQAUUUUAFFFFABRRRQAUUUUAFFFFABRRRQAUUUUAFFFFABRRRQAUUUUAFFFFABRRRQAUUUUAFFFFABRRRQAUUUUAFFFFABRRRQAUUUUAFFFFABRRRQAUUUUAFFFFABRRRQAUUUUAFFFFABRRRQAUUUUAFFFFABRRRQAUUUUAFFFFABRRRQAUUUUAFFFFABRRRQAUUUUAFFFFABRRRQAUUUUAFFFFABRRRQAUUUUAFFFFABRRRQAUUUUAFFFFABRRRQAUUUUAFFFFABRRRQAUUUUAFFFFABRRRQAUUUUAFFFFABRRRQAUUUUAFFFFABRRRQAUUUUAFFFFABRRRQAUUUUAFFFFABRRRQAUUUUAFFFFABRRRQAUUUUAFFFFABRRRQAUUUUAFFFFABRRRQAUUUUAFFFFABRRRQAUUUUAFFFFABRRRQAUUUUAFFFFABRRRQAUUUUAFFFFABRRRQAUUUUAFFFFABRRRQAUUUUAFFFFABRRRQAUUUUAFFFFABRRRQAUUUUAFFFFABRRRQAUUUUAFFFFABRRRQAUUUUAFFFFABRRRQAUUUUAFFFFABRRRQAUUUUAFFFFABRRRQAUUUUAFFFFABRRRQAUUUUAFFFFABRRRQAUUUUAFFFFABRRRQAUUUUAFFFFABRRRQAUUUUAFFFFABRRRQAUUUUAFFFFABRRRQAUUUUAFFFFABRRRQAUUUUAFFFFABRRRQAUUUUAFFFFABRRRQAUUUUAFFFFABRRRQAUUUUAFFFFABRRRQAUUUUAFFFFABRRRQAUUUUAFFFFABRRRQAUUUUAFFFFABRRRQAUUUUAFFFFABRRRQAUUUUAFFFFABRRRQAUUUUAFFFFABRRRQAUUUUAFFFFABRRRQAUUUUAFFFFABRRRQAUUUUAFFFFABRRRQAUUUUAFFFFABRRRQAUUUUAFFFFABRRRQAUUUUAFFFFABRRRQAUUUUAFFFFABRRRQAUUUUAFFFFABRRRQAUUUUAFFFFABRRRQAUUUUAFFFFABRRRQAUUUUAFFFFABRRRQAUUUUAFFFFABRRRQAUUUUAFFFFABRRRQAUUUUAFFFFABRRRQAUUUUAFFFFABRRRQAUUUUAFFFFABRRRQAUUUUAFFFFABRRRQAUUUUAFFFFABRRRQAUUUUAFFFFABRRRQAUUUUAFFFFABRRRQAUUUUAFFFFABRRRQAUUUUAFFFFABRRRQAUUUUAFFFFABRRRQAUUUUAFFFFABRRRQAUUUUAFFFFABRRRQAUUUUAFFFFABRRRQAUUUUAFFFFABRRRQAUUUUAFFFFABRRRQAUUUUAFFFFABRRRQAUUUUAFFFFABRRRQAUUUUAFFFFABRRRQAUUUUAFFFFABRRRQAUUUUAFFFFABRRRQAUUUUAFFFFABRRRQAUUUUAFFFFABRRRQAUUUUAFFFFABRRRQAUUUUAFFFFABRRRQAUUUUAFFFFABRRRQAUUUUAFFFFABRRRQAUUUUAFFFFABRRRQAUUUUAFFFFABRRRQAUUUUAFFFFABRRRQAUUUUAFFFFABRRRQAUUUUAFFFFABRRRQAUUUUAFFFFABRRRQAUUUUAFFFFABRRRQAUUUUAFFFFABRRRQAUUUUAFFFFABRRRQAUUUUAFFFFABRRRQAUUUUAFFFFABRRRQAUUUUAFFFFABRRRQAUUUUAFFFFABRRRQAUUUUAFFFFABRRRQAUUUUAFFFFABRRRQAUUUUAFFFFABRRRQAUUUUAFFFFABRRRQAUUUUAFFFFABRRRQAUUUUAFFFFABRRRQAUUUUAFFFFABRRRQAUUUUAFFFFABRRRQAUUUUAFFFFABRRRQAUUUUAFFFFABRRRQAUUUUAFFFFABRRRQAUUUUAFFFFABRRRQAUUUUAFFFFABRRRQAUUUUAFFFFABRRRQAUUUUAFFFFABRRRQAUUUUAFFFFABRRRQAUUUUAFFFFABRRRQAUUUUAFFFFABRRRQAUUUUAFFFFABRRRQAUUUUAFFFFABRRRQAUUUUAFFFFABRRRQAUUUUAFFFFABRRRQAUUUUAFFFFABRRRQAUUUUAFFFFABRRRQAUUUUAFFFFABRRRQB//9m4Svc/AAAAAO3srdKzqr9gpCVnA7ng9QY=;clipPath=inset(19% 1% 40% 0%);" vertex="1" parent="1">
          <mxGeometry x="90" y="470" width="107.56" height="44.55" as="geometry" />
        </mxCell>
      </root>
    </mxGraphModel>
  </diagram>
</mxfile>
